if(_typeface_js&&_typeface_js.loadFace)_typeface_js.loadFace({"glyphs":{"ǻ":{"x_min":45.859375,"x_max":539,"ha":606,"o":"m 539 0 l 438 0 l 437 61 q 256 -11 362 -11 q 106 39 166 -11 q 45 176 45 90 q 105 306 45 255 q 255 358 165 358 q 432 319 338 358 l 432 353 q 395 463 432 428 q 279 498 358 498 q 126 468 197 498 l 108 563 q 293 594 208 594 q 478 533 418 594 q 539 346 539 473 l 539 0 m 432 149 l 432 227 q 273 275 345 275 q 183 250 216 275 q 150 176 150 225 q 185 102 150 128 q 284 77 220 77 q 432 149 369 77 m 419 916 q 459 815 459 876 q 419 713 459 754 q 312 673 379 673 q 205 713 245 673 q 165 815 165 754 q 205 917 165 876 q 312 958 245 958 q 419 916 379 958 m 362 759 q 383 816 383 782 q 363 873 383 851 q 312 895 343 895 q 261 873 281 895 q 241 816 241 851 q 261 759 241 782 q 312 737 281 737 q 362 759 343 737 m 531 1128 l 266 1005 l 234 1066 l 477 1240 l 531 1128 "},"Ő":{"x_min":76.390625,"x_max":1091.75,"ha":1168,"o":"m 1091 508 q 940 133 1091 283 q 579 -16 788 -16 q 222 132 369 -16 q 76 508 76 281 q 227 884 76 733 q 588 1034 379 1034 q 945 884 798 1034 q 1091 508 1091 734 m 861 204 q 970 508 970 326 q 861 812 970 690 q 584 934 752 934 q 306 812 416 934 q 197 508 197 690 q 306 204 197 326 q 584 81 416 81 q 861 204 752 81 m 654 1327 l 500 1113 l 447 1148 l 561 1386 l 654 1327 m 843 1312 l 687 1097 l 634 1132 l 748 1370 l 843 1312 "},"Ž":{"x_min":51.390625,"x_max":802.84375,"ha":861,"o":"m 802 1001 l 226 100 l 795 100 l 795 0 l 58 0 l 51 15 l 627 918 l 87 918 l 87 1018 l 795 1018 l 802 1001 m 629 1331 l 443 1107 l 404 1107 l 223 1331 l 336 1331 l 429 1211 l 520 1331 l 629 1331 "},"Á":{"x_min":6.9375,"x_max":938.96875,"ha":946,"o":"m 938 0 l 819 0 l 698 282 l 243 282 l 122 0 l 6 0 l 463 1036 l 481 1036 l 938 0 m 658 375 l 470 812 l 283 375 l 658 375 m 691 1226 l 426 1103 l 394 1164 l 637 1338 l 691 1226 "},"Î":{"x_min":-30.5625,"x_max":375.03125,"ha":346,"o":"m 229 0 l 118 0 l 118 1018 l 229 1018 l 229 0 m 375 1123 l 261 1123 l 168 1241 l 76 1123 l -30 1123 l 154 1346 l 194 1346 l 375 1123 "},"e":{"x_min":55.078125,"x_max":594,"ha":640,"o":"m 594 314 q 589 259 594 279 l 162 259 q 380 83 184 83 q 541 114 445 83 l 560 22 q 370 -11 446 -11 q 137 72 218 -11 q 55 288 55 156 q 131 504 55 415 q 338 594 207 594 q 526 515 459 594 q 594 314 594 437 m 166 342 l 493 342 q 446 457 487 413 q 331 502 405 502 q 219 459 262 502 q 166 342 176 417 "},"»":{"x_min":62.5,"x_max":519.484375,"ha":588,"o":"m 519 240 l 373 13 l 263 13 l 416 240 l 263 467 l 373 467 l 519 240 m 318 240 l 172 13 l 62 13 l 215 240 l 62 467 l 172 467 l 318 240 "},"ļ":{"x_min":50.328125,"x_max":210,"ha":277,"o":"m 194 0 l 84 0 l 84 1018 l 194 1018 l 194 0 m 210 -185 q 172 -298 210 -238 q 65 -400 135 -358 l 50 -377 q 139 -240 116 -319 q 86 -218 105 -238 q 67 -169 67 -198 q 87 -121 67 -141 q 135 -101 107 -101 q 189 -125 169 -101 q 210 -185 210 -149 "},"Ĕ":{"x_min":111,"x_max":706.765625,"ha":797,"o":"m 706 0 l 111 0 l 111 1018 l 706 1018 l 706 918 l 222 918 l 222 567 l 658 567 l 658 467 l 222 467 l 222 100 l 706 100 l 706 0 m 582 1276 q 536 1161 582 1208 q 412 1114 490 1114 q 289 1161 335 1114 q 244 1276 244 1208 l 344 1285 q 412 1197 344 1197 q 481 1284 481 1197 l 582 1276 "}," ":{"x_min":0,"x_max":0,"ha":695},"ò":{"x_min":55.5625,"x_max":645.890625,"ha":701,"o":"m 563 506 q 645 291 645 419 q 563 76 645 163 q 351 -11 481 -11 q 138 76 220 -11 q 55 291 55 163 q 138 506 55 419 q 351 594 220 594 q 563 506 481 594 m 351 505 q 215 446 266 505 q 163 291 163 387 q 215 136 163 195 q 351 77 266 77 q 486 136 434 77 q 537 291 537 195 q 486 446 537 387 q 351 505 434 505 m 429 716 l 393 658 l 127 781 l 186 890 l 429 716 "},"ţ":{"x_min":18.9375,"x_max":391.234375,"ha":410,"o":"m 391 489 l 219 489 l 219 161 q 310 85 219 85 q 359 89 330 85 l 370 0 q 274 -11 314 -11 q 112 172 112 -11 l 112 489 l 18 489 l 18 502 l 112 593 l 112 694 l 219 774 l 219 583 l 391 583 l 391 489 m 306 -185 q 268 -298 306 -238 q 161 -400 231 -358 l 146 -377 q 235 -240 212 -319 q 182 -218 201 -238 q 163 -169 163 -198 q 183 -121 163 -141 q 231 -101 203 -101 q 285 -125 265 -101 q 306 -185 306 -149 "},"^":{"x_min":106.953125,"x_max":512.546875,"ha":611,"o":"m 512 674 l 398 674 l 305 792 l 213 674 l 106 674 l 291 896 l 331 896 l 512 674 "},"«":{"x_min":68.0625,"x_max":525.046875,"ha":588,"o":"m 525 13 l 415 13 l 269 240 l 415 467 l 525 467 l 372 240 l 525 13 m 323 13 l 213 13 l 68 240 l 213 467 l 323 467 l 170 240 l 323 13 "},"í":{"x_min":66.671875,"x_max":363.921875,"ha":289,"o":"m 200 0 l 90 0 l 90 583 l 200 583 l 200 0 m 363 781 l 98 658 l 66 719 l 309 893 l 363 781 "},"ˆ":{"x_min":106.953125,"x_max":512.546875,"ha":611,"o":"m 512 679 l 398 679 l 305 797 l 213 679 l 106 679 l 291 901 l 331 901 l 512 679 "},"ū":{"x_min":72,"x_max":588,"ha":666,"o":"m 588 0 l 484 0 l 484 81 q 385 16 443 43 q 273 -11 328 -11 q 123 43 175 -11 q 72 187 72 97 l 72 583 l 182 583 l 182 217 q 304 81 182 81 q 478 169 394 81 l 478 583 l 588 583 l 588 0 m 529 696 l 130 696 l 130 789 l 529 789 l 529 696 "},"Ẅ":{"x_min":13.71875,"x_max":1258.265625,"ha":1272,"o":"m 1258 1018 l 977 -16 l 955 -19 l 633 785 l 316 -19 l 294 -16 l 13 1018 l 126 1018 l 327 268 l 629 1026 l 642 1026 l 945 272 l 1145 1018 l 1258 1018 m 826 1200 q 805 1151 826 1172 q 756 1131 784 1131 q 706 1151 727 1131 q 686 1200 686 1172 q 706 1250 686 1229 q 756 1271 727 1271 q 805 1250 784 1271 q 826 1200 826 1229 m 586 1200 q 565 1151 586 1172 q 515 1131 544 1131 q 466 1151 487 1131 q 446 1200 446 1172 q 466 1250 446 1229 q 515 1271 487 1271 q 565 1250 544 1271 q 586 1200 586 1229 "},"ņ":{"x_min":78,"x_max":593,"ha":665,"o":"m 593 0 l 483 0 l 483 366 q 455 468 483 435 q 365 502 427 502 q 188 407 273 502 l 188 0 l 78 0 l 78 582 l 182 582 l 182 494 q 397 594 281 594 q 543 540 494 594 q 593 395 593 487 l 593 0 m 407 -185 q 369 -298 407 -238 q 263 -400 332 -358 l 247 -377 q 336 -240 314 -319 q 283 -218 302 -238 q 264 -169 264 -198 q 284 -121 264 -141 q 332 -101 304 -101 q 386 -125 366 -101 q 407 -185 407 -149 "},"ỳ":{"x_min":5.5625,"x_max":598.65625,"ha":604,"o":"m 598 583 l 186 -300 l 76 -300 l 251 55 l 5 583 l 127 583 l 305 165 l 480 583 l 598 583 m 380 716 l 344 658 l 79 781 l 137 890 l 380 716 "},"č":{"x_min":55.5625,"x_max":569.484375,"ha":594,"o":"m 569 48 q 370 -11 475 -11 q 144 75 233 -11 q 55 288 55 161 q 145 505 55 416 q 370 594 234 594 q 569 534 475 594 l 525 451 q 361 500 443 500 q 217 443 273 500 q 161 288 161 386 q 222 139 161 196 q 368 83 284 83 q 531 131 450 83 l 569 48 m 554 886 l 368 662 l 329 662 l 148 886 l 261 886 l 354 766 l 445 886 l 554 886 "},"’":{"x_min":37.328125,"x_max":197,"ha":239,"o":"m 197 948 q 159 836 197 895 q 52 736 122 777 l 37 758 q 126 896 103 816 q 73 917 92 897 q 54 966 54 937 q 74 1014 54 994 q 122 1035 94 1035 q 176 1010 156 1035 q 197 948 197 986 "},"-":{"x_min":69.453125,"x_max":401.421875,"ha":471,"o":"m 401 289 l 69 289 l 69 383 l 401 383 l 401 289 "},"Q":{"x_min":76.03125,"x_max":1101.125,"ha":1168,"o":"m 1101 46 l 1030 -35 l 889 89 q 577 -17 752 -17 q 221 132 367 -17 q 76 508 76 281 q 226 883 76 733 q 587 1034 377 1034 q 943 884 796 1034 q 1090 508 1090 734 q 969 164 1090 310 l 1101 46 m 969 508 q 859 812 969 690 q 582 934 750 934 q 305 812 414 934 q 196 508 196 690 q 305 204 196 326 q 582 82 414 82 q 812 159 712 82 l 766 202 q 671 286 718 244 l 625 327 l 696 408 q 887 237 887 238 q 969 508 969 355 "},"M":{"x_min":97.234375,"x_max":1090.359375,"ha":1188,"o":"m 1090 0 l 977 0 l 962 719 l 601 104 l 586 104 l 222 721 l 209 0 l 97 0 l 136 1035 l 156 1038 l 598 270 l 1029 1038 l 1051 1035 l 1090 0 "},"̦":{"x_min":34.328125,"x_max":194,"ha":239,"o":"m 194 -185 q 156 -298 194 -238 q 49 -400 119 -358 l 34 -377 q 123 -240 100 -319 q 70 -218 89 -238 q 51 -169 51 -198 q 71 -121 51 -141 q 119 -101 91 -101 q 173 -125 153 -101 q 194 -185 194 -149 "},"œ":{"x_min":55.640625,"x_max":1075,"ha":1118,"o":"m 1075 314 q 1071 259 1075 289 l 643 259 q 859 83 662 83 q 1021 114 925 83 l 1040 22 q 851 -11 927 -11 q 587 115 668 -11 q 351 -11 507 -11 q 138 76 220 -11 q 55 291 55 163 q 138 506 55 419 q 351 594 220 594 q 589 466 508 594 q 819 594 665 594 q 1007 515 939 594 q 1075 314 1075 436 m 974 342 q 927 457 968 413 q 811 502 886 502 q 699 459 742 502 q 647 342 657 417 l 974 342 m 351 504 q 215 445 266 504 q 163 291 163 386 q 215 136 163 195 q 351 77 266 77 q 486 136 434 77 q 537 291 537 195 q 486 445 537 386 q 351 504 434 504 "},"ě":{"x_min":55.078125,"x_max":594,"ha":640,"o":"m 594 314 q 589 259 594 279 l 162 259 q 380 83 184 83 q 541 114 445 83 l 560 22 q 370 -11 446 -11 q 137 72 218 -11 q 55 288 55 156 q 131 504 55 415 q 338 594 207 594 q 526 515 459 594 q 594 314 594 437 m 166 342 l 493 342 q 446 457 487 413 q 331 502 405 502 q 219 459 262 502 q 166 342 176 417 m 538 886 l 352 662 l 313 662 l 133 886 l 245 886 l 338 766 l 430 886 l 538 886 "},"ŭ":{"x_min":72,"x_max":588,"ha":665,"o":"m 588 0 l 484 0 l 484 82 q 385 16 443 43 q 273 -11 328 -11 q 123 43 175 -11 q 72 187 72 97 l 72 583 l 182 583 l 182 217 q 304 81 182 81 q 478 169 394 81 l 478 583 l 588 583 l 588 0 m 499 832 q 453 717 499 764 q 329 670 407 670 q 206 716 252 670 q 161 831 161 763 l 261 840 q 329 753 261 753 q 398 840 398 753 l 499 832 "},"{":{"x_min":34.921875,"x_max":388,"ha":413,"o":"m 388 -310 q 153 -69 153 -310 l 153 224 q 134 293 153 271 q 66 315 115 315 l 34 315 l 34 403 l 66 403 q 134 423 115 403 q 153 493 153 444 l 153 786 q 388 1028 153 1028 l 388 931 q 286 899 319 931 q 253 792 253 867 l 253 515 q 234 416 253 448 q 158 358 216 384 q 234 300 216 331 q 253 201 253 269 l 253 -73 q 286 -182 253 -150 q 388 -214 319 -214 l 388 -310 "},"#":{"x_min":34.71875,"x_max":784.78125,"ha":820,"o":"m 784 593 l 765 504 l 618 504 l 570 296 l 719 296 l 700 208 l 551 208 l 505 0 l 408 0 l 454 208 l 280 208 l 234 0 l 136 0 l 181 208 l 34 208 l 54 296 l 201 296 l 247 504 l 100 504 l 119 593 l 266 593 l 313 800 l 412 800 l 366 593 l 538 593 l 586 800 l 683 800 l 637 593 l 784 593 m 519 504 l 347 504 l 300 296 l 473 296 l 519 504 "},"Ê":{"x_min":111,"x_max":706.765625,"ha":797,"o":"m 706 0 l 111 0 l 111 1018 l 706 1018 l 706 918 l 222 918 l 222 567 l 658 567 l 658 467 l 222 467 l 222 100 l 706 100 l 706 0 m 615 1124 l 501 1124 l 408 1242 l 316 1124 l 209 1124 l 394 1346 l 434 1346 l 615 1124 "},")":{"x_min":-9.71875,"x_max":408.359375,"ha":478,"o":"m 408 358 q 311 -27 408 155 q 36 -318 215 -209 l -9 -237 q 226 16 144 -143 q 308 358 308 176 q 226 700 308 540 q -9 955 144 861 l 36 1036 q 311 744 215 926 q 408 358 408 562 "},"ș":{"x_min":37.1875,"x_max":439,"ha":492,"o":"m 439 172 q 384 43 439 97 q 245 -11 330 -11 q 37 65 131 -11 l 92 143 q 239 78 164 78 q 340 161 340 78 q 312 213 340 191 q 244 252 284 236 q 163 286 204 268 q 95 338 123 304 q 68 420 68 372 q 122 543 68 492 q 266 594 177 594 q 436 538 351 594 l 387 456 q 262 505 318 505 q 191 484 215 505 q 168 430 168 463 q 210 373 168 398 q 303 331 252 348 q 396 274 354 314 q 439 172 439 233 m 312 -185 q 274 -298 312 -238 q 167 -400 237 -358 l 152 -377 q 241 -240 218 -319 q 188 -218 207 -238 q 169 -169 169 -198 q 189 -121 169 -141 q 237 -101 209 -101 q 291 -125 271 -101 q 312 -185 312 -149 "},"Å":{"x_min":7.515625,"x_max":939.078125,"ha":946,"o":"m 621 1123 q 589 1031 621 1069 q 504 983 558 993 l 939 0 l 819 0 l 698 282 l 243 282 l 122 0 l 7 0 l 440 984 q 357 1032 388 994 q 327 1123 327 1070 q 367 1225 327 1184 q 474 1266 407 1266 q 580 1225 540 1266 q 621 1123 621 1184 m 658 375 l 471 812 l 283 375 l 658 375 m 523 1068 q 544 1125 544 1090 q 524 1182 544 1159 q 473 1204 504 1204 q 422 1182 443 1204 q 402 1125 402 1159 q 422 1068 402 1090 q 473 1045 443 1045 q 523 1068 504 1045 "},"¸":{"x_min":183.8125,"x_max":471,"ha":611,"o":"m 471 -202 q 435 -292 471 -256 q 333 -329 400 -329 q 183 -281 265 -329 l 215 -217 q 333 -255 278 -255 q 373 -241 358 -255 q 388 -205 388 -227 q 356 -157 388 -177 q 258 -133 325 -137 l 253 -121 l 290 19 l 354 2 l 335 -71 q 471 -202 471 -101 "},"a":{"x_min":45.859375,"x_max":539,"ha":606,"o":"m 539 0 l 438 0 l 437 61 q 256 -11 362 -11 q 106 39 166 -11 q 45 176 45 90 q 105 306 45 255 q 255 358 165 358 q 432 319 338 358 l 432 353 q 395 463 432 428 q 279 498 358 498 q 126 468 197 498 l 108 563 q 293 594 208 594 q 478 533 418 594 q 539 346 539 473 l 539 0 m 432 149 l 432 227 q 273 275 345 275 q 183 250 216 275 q 150 176 150 225 q 185 102 150 128 q 284 77 220 77 q 432 149 369 77 "},"Ę":{"x_min":111,"x_max":727.40625,"ha":797,"o":"m 727 -233 q 602 -304 674 -302 q 518 -272 550 -305 q 488 -191 486 -240 q 511 -107 489 -149 q 593 0 533 -65 l 111 0 l 111 1018 l 706 1018 l 706 918 l 222 918 l 222 567 l 658 567 l 658 467 l 222 467 l 222 100 l 707 100 l 707 0 l 670 0 q 576 -177 576 -115 q 620 -232 576 -232 q 685 -194 652 -232 l 727 -233 "},"=":{"x_min":83.34375,"x_max":490.3125,"ha":574,"o":"m 490 453 l 83 453 l 83 547 l 490 547 l 490 453 m 490 253 l 83 253 l 83 347 l 490 347 l 490 253 "},"˚":{"x_min":158.34375,"x_max":452.8125,"ha":611,"o":"m 412 916 q 452 815 452 876 q 412 713 452 754 q 305 673 372 673 q 198 713 238 673 q 158 815 158 754 q 198 917 158 876 q 305 958 238 958 q 412 916 372 958 m 355 759 q 376 816 376 782 q 356 873 376 851 q 305 895 336 895 q 254 873 275 895 q 234 816 234 851 q 254 759 234 782 q 305 737 275 737 q 355 759 336 737 "},"ú":{"x_min":72,"x_max":588,"ha":666,"o":"m 588 0 l 484 0 l 484 82 q 385 16 443 43 q 273 -11 328 -11 q 123 43 175 -11 q 72 187 72 97 l 72 583 l 182 583 l 182 217 q 304 81 182 81 q 478 169 394 81 l 478 583 l 588 583 l 588 0 m 548 781 l 283 658 l 251 719 l 494 893 l 548 781 "},"¯":{"x_min":106.953125,"x_max":505.59375,"ha":611,"o":"m 505 696 l 106 696 l 106 789 l 505 789 l 505 696 "},"Z":{"x_min":51.390625,"x_max":802.84375,"ha":861,"o":"m 802 1001 l 226 100 l 795 100 l 795 0 l 58 0 l 51 15 l 627 918 l 87 918 l 87 1018 l 795 1018 l 802 1001 "},"u":{"x_min":72,"x_max":588,"ha":666,"o":"m 588 0 l 484 0 l 484 81 q 385 16 443 43 q 273 -11 328 -11 q 123 43 175 -11 q 72 187 72 97 l 72 583 l 182 583 l 182 216 q 304 81 182 81 q 478 169 394 81 l 478 583 l 588 583 l 588 0 "},"k":{"x_min":78,"x_max":585.25,"ha":586,"o":"m 585 0 l 449 0 l 188 287 l 188 0 l 78 0 l 78 1018 l 188 1018 l 188 326 l 435 583 l 571 583 l 289 311 l 585 0 "},"Ù":{"x_min":99,"x_max":865,"ha":964,"o":"m 865 365 q 758 86 865 190 q 480 -17 652 -17 q 201 83 304 -17 q 99 365 99 183 l 99 1018 l 210 1018 l 210 373 q 282 154 210 226 q 480 83 354 83 q 679 155 605 83 q 754 373 754 227 l 754 1018 l 865 1018 l 865 365 m 562 1140 l 526 1082 l 261 1205 l 319 1314 l 562 1140 "},"Ů":{"x_min":99,"x_max":865,"ha":964,"o":"m 865 365 q 758 86 865 190 q 480 -17 652 -17 q 201 83 304 -17 q 99 365 99 183 l 99 1018 l 210 1018 l 210 373 q 282 154 210 226 q 480 83 354 83 q 679 155 605 83 q 754 373 754 227 l 754 1018 l 865 1018 l 865 365 m 590 1340 q 630 1238 630 1300 q 590 1137 630 1177 q 483 1097 550 1097 q 376 1137 416 1097 q 336 1238 336 1177 q 376 1341 336 1300 q 483 1382 416 1382 q 590 1340 550 1382 m 533 1183 q 554 1240 554 1205 q 534 1297 554 1275 q 483 1319 513 1319 q 432 1297 452 1319 q 412 1240 412 1275 q 432 1183 412 1205 q 483 1161 452 1161 q 533 1183 513 1161 "},"¢":{"x_min":56,"x_max":568.734375,"ha":594,"o":"m 269 -100 l 275 1 q 115 108 174 29 q 56 288 56 188 q 132 490 56 405 q 321 591 208 576 l 329 690 l 420 683 l 413 590 q 568 534 493 580 l 524 451 q 404 495 463 485 l 372 83 q 531 131 446 84 l 568 48 q 371 -11 470 -11 l 365 -11 l 359 -107 l 269 -100 m 162 288 q 194 172 162 223 q 284 98 227 122 l 314 495 q 203 427 245 481 q 162 288 162 373 "},"Ş":{"x_min":34.625,"x_max":640,"ha":697,"o":"m 476 -202 q 440 -292 476 -256 q 338 -329 405 -329 q 188 -281 270 -329 l 220 -217 q 338 -255 283 -255 q 378 -241 363 -255 q 393 -205 393 -227 q 361 -157 393 -177 q 263 -133 330 -137 l 258 -121 l 286 -15 q 34 78 158 -3 l 88 175 q 334 85 215 85 q 476 136 427 85 q 526 262 526 187 q 485 378 526 332 q 324 478 445 425 q 137 600 192 536 q 83 757 83 664 q 170 953 83 871 q 394 1035 257 1035 q 620 965 520 1035 l 570 871 q 387 934 484 934 q 244 885 295 934 q 194 763 194 836 q 234 664 194 708 q 367 578 275 619 q 583 442 526 507 q 640 275 640 378 q 558 75 640 157 q 353 -15 477 -6 l 339 -70 q 476 -202 476 -101 "},"é":{"x_min":55.078125,"x_max":594,"ha":640,"o":"m 594 314 q 589 259 594 279 l 162 259 q 380 83 184 83 q 541 114 445 83 l 560 22 q 370 -11 446 -11 q 137 72 218 -11 q 55 288 55 156 q 131 504 55 415 q 338 594 207 594 q 526 515 459 594 q 594 314 594 437 m 166 342 l 493 342 q 446 457 487 413 q 331 502 405 502 q 219 459 262 502 q 166 342 176 417 m 555 781 l 290 658 l 258 719 l 501 893 l 555 781 "},"B":{"x_min":111,"x_max":728,"ha":774,"o":"m 728 276 q 627 76 728 161 q 356 -8 527 -8 q 111 8 261 -8 l 111 1008 q 347 1025 240 1025 q 609 948 517 1025 q 701 763 701 872 q 660 618 701 677 q 522 526 620 559 q 728 276 728 473 m 586 748 q 528 882 586 833 q 356 931 470 931 q 222 919 280 931 l 222 568 q 341 564 259 564 q 526 616 466 564 q 586 748 586 669 m 611 287 q 540 421 611 365 q 344 478 469 478 q 222 474 258 478 l 222 99 q 372 88 280 88 q 548 143 485 88 q 611 287 611 199 "},"…":{"x_min":96,"x_max":877,"ha":971,"o":"m 96 61 q 116 111 96 90 q 166 132 137 132 q 218 111 197 132 q 239 61 239 90 q 218 9 239 30 q 166 -11 197 -11 q 116 9 137 -11 q 96 61 96 30 m 415 61 q 435 111 415 90 q 485 132 456 132 q 537 111 516 132 q 558 61 558 90 q 537 9 558 30 q 485 -11 516 -11 q 435 9 456 -11 q 415 61 415 30 m 734 61 q 754 111 734 90 q 804 132 775 132 q 856 111 835 132 q 877 61 877 90 q 856 9 877 30 q 804 -11 835 -11 q 754 9 775 -11 q 734 61 734 30 "},"ē":{"x_min":55.078125,"x_max":594,"ha":640,"o":"m 594 314 q 589 259 594 279 l 162 259 q 380 83 184 83 q 541 114 445 83 l 560 22 q 370 -11 446 -11 q 137 72 218 -11 q 55 288 55 156 q 131 504 55 415 q 338 594 207 594 q 526 515 459 594 q 594 314 594 437 m 166 342 l 493 342 q 446 457 487 413 q 331 502 405 502 q 219 459 262 502 q 166 342 176 417 m 536 696 l 137 696 l 137 789 l 536 789 l 536 696 "},"H":{"x_min":111,"x_max":878,"ha":989,"o":"m 878 0 l 767 0 l 767 467 l 222 467 l 222 0 l 111 0 l 111 1018 l 222 1018 l 222 567 l 767 567 l 767 1018 l 878 1018 l 878 0 "},"î":{"x_min":-58.34375,"x_max":347.25,"ha":289,"o":"m 200 0 l 90 0 l 90 583 l 200 583 l 200 0 m 347 678 l 233 678 l 140 796 l 48 678 l -58 678 l 126 901 l 166 901 l 347 678 "},"−":{"x_min":83.34375,"x_max":555.59375,"ha":639,"o":"m 83 353 l 83 447 l 555 447 l 555 353 l 83 353 "},"¥":{"x_min":34.46875,"x_max":663.953125,"ha":699,"o":"m 663 800 l 452 466 l 623 466 l 623 372 l 407 372 l 407 279 l 623 279 l 623 189 l 407 189 l 407 0 l 297 0 l 297 189 l 74 189 l 74 279 l 297 279 l 297 372 l 74 372 l 74 466 l 249 466 l 34 800 l 159 800 l 354 487 l 543 800 l 663 800 "},"U":{"x_min":99,"x_max":865,"ha":964,"o":"m 865 365 q 758 86 865 190 q 480 -17 652 -17 q 201 83 304 -17 q 99 365 99 183 l 99 1018 l 210 1018 l 210 373 q 282 154 210 226 q 480 83 354 83 q 679 155 605 83 q 754 373 754 227 l 754 1018 l 865 1018 l 865 365 "},"Ñ":{"x_min":111,"x_max":897,"ha":1008,"o":"m 897 -14 l 883 -19 l 222 772 l 222 0 l 111 0 l 111 1032 l 133 1037 l 786 258 l 786 1018 l 897 1018 l 897 -14 m 713 1179 q 581 1104 655 1104 q 501 1130 543 1104 q 433 1157 465 1157 q 352 1105 393 1157 l 302 1170 q 434 1246 361 1246 q 513 1219 475 1246 q 583 1193 552 1193 q 663 1244 623 1193 l 713 1179 "},"F":{"x_min":111,"x_max":706.765625,"ha":747,"o":"m 706 918 l 222 918 l 222 547 l 658 547 l 658 447 l 222 447 l 222 0 l 111 0 l 111 1018 l 706 1018 l 706 918 "},"ā":{"x_min":45.859375,"x_max":539,"ha":606,"o":"m 539 0 l 438 0 l 437 61 q 256 -11 362 -11 q 106 39 166 -11 q 45 176 45 90 q 105 306 45 255 q 255 358 165 358 q 432 319 338 358 l 432 353 q 395 463 432 428 q 279 498 358 498 q 126 468 197 498 l 108 563 q 293 594 208 594 q 478 533 418 594 q 539 346 539 473 l 539 0 m 432 149 l 432 227 q 273 275 345 275 q 183 250 216 275 q 150 176 150 225 q 185 102 150 128 q 284 77 220 77 q 432 149 369 77 m 512 696 l 113 696 l 113 789 l 512 789 l 512 696 "},"←":{"x_min":45.84375,"x_max":918.125,"ha":988,"o":"m 918 353 l 233 353 l 501 132 l 443 63 l 45 392 l 45 408 l 443 738 l 501 668 l 233 447 l 918 447 l 918 353 "},"ă":{"x_min":45.859375,"x_max":539,"ha":606,"o":"m 539 0 l 438 0 l 437 61 q 256 -11 362 -11 q 106 39 166 -11 q 45 176 45 90 q 105 306 45 255 q 255 358 165 358 q 432 319 338 358 l 432 353 q 395 463 432 428 q 279 498 358 498 q 126 468 197 498 l 108 563 q 293 594 208 594 q 478 533 418 594 q 539 346 539 473 l 539 0 m 432 149 l 432 227 q 273 275 345 275 q 183 250 216 275 q 150 176 150 225 q 185 102 150 128 q 284 77 220 77 q 432 149 369 77 m 482 832 q 436 717 482 764 q 312 670 390 670 q 189 716 235 670 q 144 831 144 763 l 244 840 q 312 753 244 753 q 381 840 381 753 l 482 832 "},"*":{"x_min":55.375,"x_max":471.625,"ha":528,"o":"m 471 839 l 320 797 l 418 677 l 349 629 l 263 756 l 177 629 l 109 677 l 206 797 l 55 839 l 81 918 l 229 864 l 220 1017 l 306 1017 l 298 864 l 445 918 l 471 839 "},"†":{"x_min":41.984375,"x_max":590.46875,"ha":632,"o":"m 590 684 l 371 684 l 371 217 l 267 217 l 267 684 l 41 684 l 41 778 l 267 778 l 267 1018 l 371 1018 l 371 778 l 590 778 l 590 684 "},"°":{"x_min":154.171875,"x_max":456.984375,"ha":611,"o":"m 413 913 q 456 808 456 872 q 414 704 456 744 q 305 663 372 663 q 196 704 238 663 q 154 808 154 744 q 196 913 154 872 q 305 955 238 955 q 413 913 372 955 m 358 750 q 379 809 379 773 q 359 868 379 845 q 305 891 338 891 q 252 868 272 891 q 231 809 231 845 q 252 750 231 773 q 305 727 272 727 q 358 750 338 727 "},"å":{"x_min":45.859375,"x_max":539,"ha":606,"o":"m 539 0 l 438 0 l 437 61 q 256 -11 362 -11 q 106 39 166 -11 q 45 176 45 90 q 105 306 45 255 q 255 358 165 358 q 432 319 338 358 l 432 353 q 395 463 432 428 q 279 498 358 498 q 126 468 197 498 l 108 563 q 293 594 208 594 q 478 533 418 594 q 539 346 539 473 l 539 0 m 432 149 l 432 227 q 273 275 345 275 q 183 250 216 275 q 150 176 150 225 q 185 102 150 128 q 284 77 220 77 q 432 149 369 77 m 419 916 q 459 815 459 876 q 419 713 459 754 q 312 673 379 673 q 205 713 245 673 q 165 815 165 754 q 205 917 165 876 q 312 958 245 958 q 419 916 379 958 m 362 759 q 383 816 383 782 q 363 873 383 851 q 312 895 343 895 q 261 873 281 895 q 241 816 241 851 q 261 759 241 782 q 312 737 281 737 q 362 759 343 737 "},"0":{"x_min":60.890625,"x_max":679,"ha":738,"o":"m 679 399 q 596 104 679 223 q 367 -14 513 -14 q 142 104 223 -14 q 60 399 60 223 q 144 695 60 576 q 373 813 227 813 q 598 695 517 813 q 679 399 679 577 m 565 399 q 514 628 565 538 q 370 718 464 718 q 225 628 276 718 q 174 399 174 538 q 225 170 174 261 q 370 80 276 80 q 514 170 463 80 q 565 399 565 261 "},"ō":{"x_min":55.5625,"x_max":645.890625,"ha":701,"o":"m 563 506 q 645 291 645 419 q 563 76 645 163 q 351 -11 481 -11 q 138 76 220 -11 q 55 291 55 163 q 138 506 55 419 q 351 594 220 594 q 563 506 481 594 m 351 505 q 215 446 266 505 q 163 291 163 387 q 215 136 163 195 q 351 77 266 77 q 486 136 434 77 q 537 291 537 195 q 486 446 537 387 q 351 505 434 505 m 550 696 l 151 696 l 151 789 l 550 789 l 550 696 "},"”":{"x_min":37.71875,"x_max":401,"ha":443,"o":"m 401 948 q 363 836 401 895 q 257 736 326 777 l 241 758 q 330 896 308 816 q 277 917 296 897 q 258 966 258 937 q 278 1014 258 994 q 326 1035 298 1035 q 380 1010 360 1035 q 401 948 401 986 m 197 948 q 159 836 197 895 q 53 736 122 777 l 37 758 q 126 896 104 816 q 73 917 92 897 q 54 966 54 937 q 74 1014 54 994 q 122 1035 94 1035 q 176 1010 156 1035 q 197 948 197 986 "},"ŵ":{"x_min":11.109375,"x_max":822.28125,"ha":828,"o":"m 822 583 l 615 -15 l 597 -15 l 419 380 l 238 -15 l 220 -15 l 11 583 l 133 583 l 247 202 l 408 586 l 426 586 l 598 202 l 705 583 l 822 583 m 619 678 l 505 678 l 412 797 l 320 678 l 213 678 l 398 901 l 438 901 l 619 678 "},"Ķ":{"x_min":111,"x_max":827.609375,"ha":832,"o":"m 827 0 l 681 0 l 222 500 l 222 0 l 111 0 l 111 1018 l 222 1018 l 222 544 l 665 1018 l 805 1018 l 333 523 l 827 0 m 508 -165 q 470 -277 508 -218 q 364 -379 433 -337 l 348 -356 q 437 -220 415 -298 q 384 -198 403 -218 q 365 -149 365 -178 q 385 -101 365 -121 q 433 -81 405 -81 q 487 -105 467 -81 q 508 -165 508 -129 "},"ö":{"x_min":55.5625,"x_max":645.890625,"ha":701,"o":"m 563 506 q 645 291 645 419 q 563 76 645 163 q 351 -11 481 -11 q 138 76 220 -11 q 55 291 55 163 q 138 506 55 419 q 351 594 220 594 q 563 506 481 594 m 351 505 q 215 446 266 505 q 163 291 163 387 q 215 136 163 195 q 351 77 266 77 q 486 136 434 77 q 537 291 537 195 q 486 446 537 387 q 351 505 434 505 m 540 755 q 519 706 540 727 q 470 686 498 686 q 420 706 441 686 q 400 755 400 727 q 420 805 400 784 q 470 826 441 826 q 519 805 498 826 q 540 755 540 784 m 300 755 q 279 706 300 727 q 229 686 258 686 q 180 706 201 686 q 160 755 160 727 q 180 805 160 784 q 229 826 201 826 q 279 805 258 826 q 300 755 300 784 "},"ǽ":{"x_min":46.09375,"x_max":971,"ha":1017,"o":"m 432 318 l 432 354 q 396 463 432 428 q 279 498 360 498 q 126 468 200 498 l 108 563 q 294 594 208 594 q 501 489 453 594 q 715 594 578 594 q 903 515 835 594 q 971 314 971 436 q 967 259 971 289 l 539 259 q 757 83 558 83 q 916 114 823 83 l 936 22 q 747 -11 823 -11 q 491 105 572 -11 q 257 -11 410 -11 q 107 39 168 -11 q 46 176 46 90 q 105 306 46 255 q 254 358 165 358 q 432 318 343 358 m 870 342 q 823 457 864 413 q 707 502 782 502 q 595 460 638 502 q 543 342 553 417 l 870 342 m 440 211 q 367 256 413 238 q 273 275 320 275 q 183 249 216 275 q 150 176 150 224 q 185 101 150 127 q 284 76 220 76 q 378 109 334 76 q 440 211 422 142 m 727 781 l 462 658 l 430 719 l 673 893 l 727 781 "},"Ļ":{"x_min":111,"x_max":706.765625,"ha":732,"o":"m 706 0 l 111 0 l 111 1018 l 222 1018 l 222 100 l 706 100 l 706 0 m 468 -185 q 430 -298 468 -238 q 324 -400 393 -358 l 308 -377 q 397 -240 375 -319 q 344 -218 363 -238 q 325 -169 325 -198 q 345 -121 325 -141 q 393 -101 365 -101 q 447 -125 427 -101 q 468 -185 468 -149 "},"Õ":{"x_min":76.390625,"x_max":1091.75,"ha":1168,"o":"m 1091 508 q 940 133 1091 283 q 579 -16 788 -16 q 222 132 369 -16 q 76 508 76 281 q 227 884 76 733 q 588 1034 379 1034 q 945 884 798 1034 q 1091 508 1091 734 m 861 204 q 970 508 970 326 q 861 812 970 690 q 584 934 752 934 q 306 812 416 934 q 197 508 197 690 q 306 204 197 326 q 584 81 416 81 q 861 204 752 81 m 793 1200 q 661 1125 734 1125 q 580 1151 622 1125 q 512 1178 544 1178 q 431 1126 472 1178 l 381 1191 q 513 1267 440 1267 q 593 1240 554 1267 q 662 1214 632 1214 q 743 1265 702 1214 l 793 1200 "},"ć":{"x_min":55.5625,"x_max":570.875,"ha":594,"o":"m 569 48 q 370 -11 475 -11 q 144 75 233 -11 q 55 288 55 161 q 145 505 55 416 q 370 594 234 594 q 569 534 475 594 l 525 451 q 361 500 443 500 q 217 443 273 500 q 161 288 161 386 q 222 139 161 196 q 368 83 284 83 q 531 131 450 83 l 569 48 m 570 781 l 305 658 l 273 719 l 516 893 l 570 781 "},"þ":{"x_min":78,"x_max":652,"ha":708,"o":"m 652 295 q 568 77 652 166 q 356 -11 485 -11 q 188 31 265 -11 l 188 -300 l 78 -300 l 78 1018 l 182 1018 l 182 524 q 377 594 261 594 q 572 510 493 594 q 652 295 652 426 m 544 294 q 492 442 544 383 q 356 502 441 502 q 186 433 255 502 l 186 145 q 353 79 244 79 q 490 139 437 79 q 544 294 544 199 "},"]":{"x_min":33,"x_max":301,"ha":413,"o":"m 301 -300 l 33 -300 l 33 -212 l 201 -212 l 201 929 l 33 929 l 33 1018 l 301 1018 l 301 -300 "},"ẁ":{"x_min":11.109375,"x_max":822.28125,"ha":828,"o":"m 822 583 l 615 -15 l 597 -15 l 419 380 l 238 -15 l 220 -15 l 11 583 l 133 583 l 247 202 l 408 586 l 426 586 l 598 202 l 705 583 l 822 583 m 495 716 l 459 658 l 194 781 l 252 890 l 495 716 "},"ĭ":{"x_min":-24,"x_max":314,"ha":289,"o":"m 200 0 l 90 0 l 90 583 l 200 583 l 200 0 m 314 832 q 268 717 314 764 q 144 670 222 670 q 21 716 67 670 q -24 831 -24 763 l 76 840 q 144 753 76 753 q 213 840 213 753 l 314 832 "},"8":{"x_min":83.34375,"x_max":584.765625,"ha":668,"o":"m 584 216 q 514 53 584 120 q 333 -14 444 -14 q 152 53 222 -14 q 83 216 83 120 q 117 330 83 280 q 209 410 151 381 q 100 588 100 470 q 165 749 100 684 q 333 813 230 813 q 501 749 436 813 q 566 588 566 684 q 458 410 566 471 q 550 330 516 381 q 584 216 584 280 m 463 588 q 427 684 463 645 q 333 723 391 723 q 239 684 276 723 q 202 588 202 645 q 239 493 202 533 q 333 454 276 454 q 427 493 391 454 q 463 588 463 533 m 333 362 q 231 321 270 362 q 191 218 191 280 q 231 116 191 157 q 333 75 270 75 q 436 116 397 75 q 476 218 476 157 q 436 321 476 280 q 333 362 397 362 "},"R":{"x_min":113,"x_max":812.78125,"ha":825,"o":"m 812 0 l 678 0 l 407 402 q 339 399 362 399 q 224 402 290 399 l 224 0 l 113 0 l 113 1008 q 347 1025 242 1025 q 638 941 537 1025 q 739 719 739 857 q 681 536 739 612 q 516 425 623 459 l 812 0 m 620 712 q 552 865 620 805 q 364 925 485 925 q 224 913 272 925 l 224 500 q 347 493 279 493 q 552 551 485 493 q 620 712 620 609 "},"ť":{"x_min":19.9375,"x_max":451,"ha":409,"o":"m 392 489 l 220 489 l 220 161 q 311 85 220 85 q 360 89 331 85 l 371 0 q 275 -11 315 -11 q 113 172 113 -11 l 113 489 l 19 489 l 19 502 l 113 593 l 113 694 l 220 773 l 220 583 l 392 583 l 392 489 m 347 945 l 451 928 q 324 665 451 768 l 272 706 q 347 945 341 786 "},"Ľ":{"x_min":111,"x_max":706.765625,"ha":732,"o":"m 706 0 l 111 0 l 111 1018 l 222 1018 l 222 100 l 706 100 l 706 0 m 396 1018 l 500 1001 q 373 738 500 841 l 321 779 q 396 1018 390 859 "},"Ż":{"x_min":51.390625,"x_max":802.84375,"ha":861,"o":"m 802 1001 l 226 100 l 795 100 l 795 0 l 58 0 l 51 15 l 627 918 l 87 918 l 87 1018 l 795 1018 l 802 1001 m 356 1200 q 377 1250 356 1229 q 426 1271 398 1271 q 476 1250 455 1271 q 497 1200 497 1229 q 476 1151 497 1172 q 426 1131 455 1131 q 377 1151 398 1131 q 356 1200 356 1172 "},"o":{"x_min":55.5625,"x_max":645.890625,"ha":701,"o":"m 563 506 q 645 291 645 419 q 563 76 645 163 q 351 -11 481 -11 q 138 76 220 -11 q 55 291 55 163 q 138 506 55 419 q 351 594 220 594 q 563 506 481 594 m 351 505 q 215 446 266 505 q 163 291 163 387 q 215 136 163 195 q 351 77 266 77 q 486 136 434 77 q 537 291 537 195 q 486 446 537 387 q 351 505 434 505 "},"5":{"x_min":77.828125,"x_max":563,"ha":635,"o":"m 563 246 q 489 60 563 135 q 291 -13 415 -13 q 77 23 186 -13 l 107 116 q 282 82 197 82 q 411 128 367 82 q 456 246 456 173 q 408 351 456 311 q 270 392 360 392 q 123 375 188 392 l 111 390 l 111 800 l 525 800 l 525 700 l 214 700 l 214 489 q 275 492 247 492 q 489 423 415 492 q 563 246 563 355 "},"ħ":{"x_min":0.21875,"x_max":602,"ha":674,"o":"m 602 0 l 492 0 l 492 366 q 369 502 492 502 q 273 474 324 502 q 188 407 222 446 l 188 0 l 78 0 l 78 779 l 0 779 l 0 869 l 78 869 l 78 1018 l 188 1018 l 188 869 l 388 869 l 388 779 l 188 779 l 187 495 q 397 594 283 594 q 549 539 496 594 q 602 395 602 485 l 602 0 "},"õ":{"x_min":55.5625,"x_max":645.890625,"ha":701,"o":"m 563 506 q 645 291 645 419 q 563 76 645 163 q 351 -11 481 -11 q 138 76 220 -11 q 55 291 55 163 q 138 506 55 419 q 351 594 220 594 q 563 506 481 594 m 351 505 q 215 446 266 505 q 163 291 163 387 q 215 136 163 195 q 351 77 266 77 q 486 136 434 77 q 537 291 537 195 q 486 446 537 387 q 351 505 434 505 m 559 756 q 427 681 501 681 q 347 707 388 681 q 279 733 311 733 q 198 681 238 733 l 148 746 q 280 822 206 822 q 359 796 319 822 q 429 770 398 770 q 509 821 469 770 l 559 756 "},",":{"x_min":68.328125,"x_max":228,"ha":306,"o":"m 228 47 q 190 -65 228 -5 q 83 -167 153 -125 l 68 -144 q 157 -7 134 -86 q 104 14 123 -5 q 85 63 85 34 q 105 111 85 91 q 153 132 125 132 q 207 107 187 132 q 228 47 228 83 "},"d":{"x_min":56,"x_max":631,"ha":709,"o":"m 631 0 l 527 0 l 526 60 q 340 -11 458 -11 q 135 71 214 -11 q 56 285 56 154 q 141 503 56 413 q 343 594 226 594 q 521 535 448 594 l 521 1018 l 631 1018 l 631 0 m 521 157 l 521 423 q 351 502 457 502 q 216 442 269 502 q 164 288 164 382 q 216 139 164 198 q 358 81 269 81 q 521 157 455 81 "},"\"":{"x_min":61.109375,"x_max":516.703125,"ha":558,"o":"m 298 896 l 122 650 l 61 690 l 191 963 l 298 896 m 516 880 l 337 633 l 276 673 l 406 948 l 516 880 "},"˙":{"x_min":236,"x_max":376,"ha":611,"o":"m 236 755 q 256 805 236 784 q 305 826 277 826 q 355 805 334 826 q 376 755 376 784 q 355 706 376 727 q 305 686 334 686 q 256 706 277 686 q 236 755 236 727 "},"ê":{"x_min":55.078125,"x_max":594,"ha":640,"o":"m 594 313 q 589 258 594 278 l 162 258 q 380 83 184 83 q 541 114 445 83 l 560 22 q 370 -11 446 -11 q 137 72 218 -11 q 55 288 55 156 q 131 504 55 415 q 338 594 207 594 q 526 515 459 594 q 594 313 594 437 m 166 341 l 493 341 q 446 457 487 413 q 331 502 405 502 q 219 459 262 502 q 166 341 176 417 m 538 679 l 424 679 l 331 797 l 240 679 l 133 678 l 317 901 l 358 901 l 538 679 "},"„":{"x_min":37.71875,"x_max":398,"ha":442,"o":"m 398 45 q 362 -66 398 -8 q 257 -167 326 -125 l 241 -144 q 330 -7 308 -86 q 277 14 296 -5 q 258 63 258 34 q 278 111 258 91 q 325 132 298 132 q 379 107 360 132 q 398 45 398 83 m 197 45 q 159 -66 197 -7 q 53 -167 122 -125 l 37 -144 q 126 -7 104 -86 q 73 14 92 -5 q 54 63 54 34 q 74 111 54 91 q 122 132 94 132 q 176 107 156 132 q 197 45 197 83 "},"ľ":{"x_min":83,"x_max":428,"ha":277,"o":"m 193 0 l 83 0 l 83 1018 l 193 1018 l 193 0 m 324 1018 l 428 1001 q 301 738 428 841 l 248 779 q 324 1018 318 859 "},"Â":{"x_min":6.9375,"x_max":938.96875,"ha":946,"o":"m 938 0 l 819 0 l 698 281 l 243 281 l 122 0 l 6 0 l 463 1036 l 481 1036 l 938 0 m 658 375 l 470 812 l 283 375 l 658 375 m 675 1123 l 561 1123 l 468 1241 l 376 1123 l 269 1123 l 454 1346 l 494 1346 l 675 1123 "},"Į":{"x_min":32.9375,"x_max":272.40625,"ha":346,"o":"m 272 -233 q 147 -304 219 -302 q 63 -272 95 -305 q 33 -191 31 -240 q 56 -107 34 -149 q 139 0 79 -65 l 118 0 l 118 1018 l 229 1018 l 229 0 l 215 0 q 121 -177 121 -115 q 165 -232 121 -232 q 230 -194 197 -232 l 272 -233 "},"ė":{"x_min":55.234375,"x_max":594,"ha":640,"o":"m 594 314 q 590 259 594 279 l 162 259 q 380 83 184 83 q 541 114 445 83 l 560 22 q 370 -11 446 -11 q 137 72 219 -11 q 55 288 55 156 q 131 504 55 415 q 338 594 208 594 q 526 515 459 594 q 594 314 594 437 m 166 342 l 493 342 q 446 457 487 413 q 331 502 405 502 q 219 459 262 502 q 166 342 176 417 m 267 755 q 287 805 267 784 q 336 826 308 826 q 386 805 365 826 q 407 755 407 784 q 386 706 407 727 q 336 686 365 686 q 287 706 308 686 q 267 755 267 727 "},"Ţ":{"x_min":34.6875,"x_max":824.90625,"ha":860,"o":"m 824 918 l 486 918 l 486 0 l 375 0 l 375 918 l 34 918 l 34 1018 l 824 1018 l 824 918 m 501 -185 q 463 -298 501 -238 q 356 -400 426 -358 l 341 -377 q 430 -240 408 -319 q 377 -218 396 -238 q 358 -169 358 -198 q 378 -121 358 -141 q 426 -101 398 -101 q 480 -125 460 -101 q 501 -185 501 -149 "},"Í":{"x_min":94.453125,"x_max":391.703125,"ha":346,"o":"m 229 0 l 118 0 l 118 1018 l 229 1018 l 229 0 m 391 1226 l 126 1103 l 94 1164 l 337 1338 l 391 1226 "},"´":{"x_min":152.796875,"x_max":450.03125,"ha":611,"o":"m 450 781 l 184 658 l 152 719 l 395 893 l 450 781 "},"Ú":{"x_min":99,"x_max":865,"ha":964,"o":"m 865 365 q 758 86 865 190 q 480 -17 652 -17 q 201 83 304 -17 q 99 365 99 183 l 99 1018 l 210 1018 l 210 373 q 282 154 210 226 q 480 83 354 83 q 679 155 605 83 q 754 373 754 227 l 754 1018 l 865 1018 l 865 365 m 702 1205 l 437 1082 l 405 1143 l 648 1317 l 702 1205 "}," ":{"x_min":0,"x_max":0,"ha":185},"Ŷ":{"x_min":28.03125,"x_max":854.359375,"ha":882,"o":"m 854 1018 l 496 451 l 496 0 l 385 0 l 385 452 l 28 1018 l 153 1018 l 444 545 l 732 1018 l 854 1018 m 643 1102 l 529 1102 l 436 1220 l 344 1102 l 237 1102 l 422 1325 l 462 1325 l 643 1102 "},"Ý":{"x_min":28.03125,"x_max":854.359375,"ha":882,"o":"m 854 1018 l 496 451 l 496 0 l 385 0 l 385 452 l 28 1018 l 153 1018 l 444 545 l 732 1018 l 854 1018 m 659 1205 l 394 1082 l 362 1143 l 605 1317 l 659 1205 "}," ":{"x_min":0,"x_max":0,"ha":1389},"ą":{"x_min":45.859375,"x_max":568.390625,"ha":606,"o":"m 568 -233 q 443 -304 515 -302 q 359 -272 391 -305 q 329 -191 327 -240 q 353 -107 330 -150 q 438 1 376 -65 l 437 61 q 256 -11 362 -11 q 106 39 166 -11 q 45 176 45 90 q 105 306 45 255 q 255 358 165 358 q 432 319 338 358 l 432 353 q 395 463 432 428 q 279 498 358 498 q 126 468 197 498 l 108 563 q 293 594 208 594 q 478 533 418 594 q 539 346 539 473 l 539 0 l 511 0 q 417 -177 417 -115 q 461 -232 417 -232 q 526 -194 493 -232 l 568 -233 m 432 149 l 432 227 q 273 275 345 275 q 183 250 216 275 q 150 176 150 225 q 185 102 150 128 q 284 77 220 77 q 432 149 369 77 "},"Ö":{"x_min":76.390625,"x_max":1091.75,"ha":1168,"o":"m 1091 508 q 940 133 1091 283 q 579 -16 788 -16 q 222 132 369 -16 q 76 508 76 281 q 227 884 76 733 q 588 1034 379 1034 q 945 884 798 1034 q 1091 508 1091 734 m 861 204 q 970 508 970 326 q 861 812 970 690 q 584 934 752 934 q 306 812 416 934 q 197 508 197 690 q 306 204 197 326 q 584 81 416 81 q 861 204 752 81 m 773 1200 q 752 1151 773 1172 q 703 1131 731 1131 q 653 1151 674 1131 q 633 1200 633 1172 q 653 1250 633 1229 q 703 1271 674 1271 q 752 1250 731 1271 q 773 1200 773 1229 m 533 1200 q 512 1151 533 1172 q 462 1131 491 1131 q 413 1151 434 1131 q 393 1200 393 1172 q 413 1250 393 1229 q 462 1271 434 1271 q 512 1250 491 1271 q 533 1200 533 1229 "},"z":{"x_min":25,"x_max":534.765625,"ha":563,"o":"m 534 566 l 193 94 l 527 94 l 527 0 l 31 0 l 25 15 l 366 489 l 51 489 l 51 583 l 527 583 l 534 566 "},"™":{"x_min":31.328125,"x_max":647.28125,"ha":679,"o":"m 647 717 l 587 717 l 583 879 l 495 757 l 488 757 l 400 879 l 397 717 l 336 717 l 350 1021 l 358 1021 l 493 839 l 625 1021 l 633 1021 l 647 717 m 277 961 l 186 961 l 186 717 l 123 717 l 123 961 l 31 961 l 31 1018 l 277 1018 l 277 961 "},"Ř":{"x_min":113,"x_max":812.78125,"ha":825,"o":"m 812 0 l 678 0 l 407 402 q 339 399 362 399 q 224 402 290 399 l 224 0 l 113 0 l 113 1008 q 347 1025 242 1025 q 638 941 537 1025 q 739 719 739 857 q 681 536 739 612 q 516 425 623 459 l 812 0 m 620 712 q 552 865 620 805 q 364 925 485 925 q 224 913 272 925 l 224 500 q 347 493 279 493 q 552 551 485 493 q 620 712 620 609 m 602 1331 l 416 1107 l 378 1107 l 197 1331 l 310 1331 l 403 1211 l 494 1331 l 602 1331 "},"ã":{"x_min":45.859375,"x_max":539,"ha":606,"o":"m 539 0 l 438 0 l 437 61 q 256 -11 362 -11 q 106 39 166 -11 q 45 176 45 90 q 105 306 45 255 q 255 358 165 358 q 432 319 338 358 l 432 353 q 395 463 432 428 q 279 498 358 498 q 126 468 197 498 l 108 563 q 293 594 208 594 q 478 533 418 594 q 539 346 539 473 l 539 0 m 432 149 l 432 227 q 273 275 345 275 q 183 250 216 275 q 150 176 150 225 q 185 102 150 128 q 284 77 220 77 q 432 149 369 77 m 522 756 q 390 681 463 681 q 309 707 351 681 q 241 733 273 733 q 161 681 201 733 l 111 746 q 243 822 169 822 q 322 796 283 822 q 391 770 361 770 q 472 821 431 770 l 522 756 "},"Ň":{"x_min":111,"x_max":897,"ha":1008,"o":"m 897 -14 l 883 -19 l 222 772 l 222 0 l 111 0 l 111 1032 l 133 1037 l 786 258 l 786 1018 l 897 1018 l 897 -14 m 706 1310 l 520 1086 l 481 1086 l 301 1310 l 413 1310 l 506 1190 l 598 1310 l 706 1310 "},"æ":{"x_min":46.09375,"x_max":971,"ha":1017,"o":"m 432 318 l 432 354 q 396 463 432 428 q 279 498 360 498 q 126 468 200 498 l 108 563 q 294 594 208 594 q 501 489 453 594 q 715 594 578 594 q 903 515 835 594 q 971 314 971 436 q 967 259 971 289 l 539 259 q 757 83 558 83 q 916 114 823 83 l 936 22 q 747 -11 823 -11 q 491 105 572 -11 q 257 -11 410 -11 q 107 39 168 -11 q 46 176 46 90 q 105 306 46 255 q 254 358 165 358 q 432 318 343 358 m 870 342 q 823 457 864 413 q 707 502 782 502 q 595 460 638 502 q 543 342 553 417 l 870 342 m 440 211 q 367 256 413 238 q 273 275 320 275 q 183 249 216 275 q 150 176 150 224 q 185 101 150 127 q 284 76 220 76 q 378 109 334 76 q 440 211 422 142 "},"É":{"x_min":111,"x_max":706.765625,"ha":797,"o":"m 706 0 l 111 0 l 111 1018 l 706 1018 l 706 918 l 222 918 l 222 567 l 658 567 l 658 467 l 222 467 l 222 100 l 706 100 l 706 0 m 632 1226 l 366 1103 l 334 1164 l 577 1338 l 632 1226 "},"ŀ":{"x_min":83,"x_max":403,"ha":389,"o":"m 193 0 l 83 0 l 83 1018 l 193 1018 l 193 0 m 263 508 q 283 459 263 480 q 332 438 304 438 q 382 459 361 438 q 403 508 403 480 q 382 558 403 537 q 332 579 361 579 q 283 558 304 579 q 263 508 263 537 "},"~":{"x_min":98.625,"x_max":509.765625,"ha":611,"o":"m 509 512 q 377 437 451 437 q 297 463 338 437 q 229 490 261 490 q 148 438 188 490 l 98 503 q 230 579 156 579 q 309 552 269 579 q 379 526 348 526 q 459 577 419 526 l 509 512 "},"Ċ":{"x_min":76,"x_max":952.625,"ha":992,"o":"m 952 80 q 616 -17 795 -17 q 228 131 380 -17 q 76 508 76 279 q 230 884 76 733 q 616 1035 385 1035 q 952 937 795 1035 l 906 843 q 606 931 755 931 q 307 812 417 931 q 197 508 197 693 q 311 205 197 324 q 616 87 426 87 q 916 174 766 87 l 952 80 m 514 1200 q 534 1250 514 1229 q 583 1271 555 1271 q 633 1250 612 1271 q 654 1200 654 1229 q 633 1151 654 1172 q 583 1131 612 1131 q 534 1151 555 1131 q 514 1200 514 1172 "},"¡":{"x_min":81,"x_max":224,"ha":306,"o":"m 81 956 q 101 1008 81 987 q 153 1029 122 1029 q 203 1008 182 1029 q 224 956 224 987 q 203 906 224 927 q 153 886 182 886 q 101 906 122 886 q 81 956 81 927 m 91 0 l 111 765 l 194 765 l 214 0 l 91 0 "},"ẅ":{"x_min":10.265625,"x_max":821.953125,"ha":828,"o":"m 821 583 l 615 -15 l 597 -15 l 418 380 l 238 -15 l 220 -15 l 10 583 l 132 583 l 246 202 l 408 586 l 426 586 l 599 202 l 705 583 l 821 583 m 607 755 q 586 706 607 727 q 537 686 565 686 q 487 706 508 686 q 467 755 467 727 q 487 805 467 784 q 537 826 508 826 q 586 805 565 826 q 607 755 607 784 m 366 755 q 345 706 366 727 q 295 686 324 686 q 246 706 267 686 q 226 755 226 727 q 246 805 226 784 q 295 826 267 826 q 345 805 324 826 q 366 755 366 784 "},"[":{"x_min":111,"x_max":379,"ha":413,"o":"m 379 -300 l 111 -300 l 111 1018 l 379 1018 l 379 929 l 211 929 l 211 -212 l 379 -212 l 379 -300 "},"%":{"x_min":69.453125,"x_max":855.625,"ha":925,"o":"m 237 405 q 113 463 158 405 q 69 609 69 522 q 115 755 69 697 q 240 813 161 813 q 365 755 320 813 q 409 609 409 697 q 363 463 409 522 q 237 405 318 405 m 826 774 l 161 -26 l 98 25 l 763 826 l 826 774 m 684 -14 q 560 44 604 -14 q 516 190 516 102 q 561 336 516 277 q 687 394 607 394 q 811 336 766 394 q 855 190 855 277 q 809 44 855 102 q 684 -14 763 -14 m 301 519 q 323 609 323 555 q 301 699 323 663 q 238 734 279 734 q 176 699 198 734 q 154 609 154 663 q 176 520 154 555 q 238 484 198 484 q 301 519 279 484 m 748 100 q 770 190 770 136 q 748 279 770 244 q 686 315 726 315 q 623 279 645 315 q 601 190 601 244 q 623 100 601 136 q 686 65 645 65 q 748 100 726 65 "},"P":{"x_min":111,"x_max":736,"ha":765,"o":"m 736 701 q 629 449 736 545 q 337 354 522 354 q 222 360 291 354 l 222 0 l 111 0 l 111 1008 q 344 1025 240 1025 q 633 932 531 1025 q 736 701 736 840 m 617 692 q 548 856 617 788 q 361 925 480 925 q 222 913 270 925 l 222 459 q 344 451 291 451 q 548 519 480 451 q 617 692 617 587 "},"_":{"x_min":0,"x_max":722.28125,"ha":722,"o":"m 722 0 l 0 0 l 0 94 l 722 94 l 722 0 "},"Ŕ":{"x_min":113,"x_max":812.78125,"ha":825,"o":"m 812 0 l 678 0 l 407 402 q 339 399 362 399 q 224 402 290 399 l 224 0 l 113 0 l 113 1008 q 347 1025 242 1025 q 638 941 537 1025 q 739 719 739 857 q 681 536 739 612 q 516 425 623 459 l 812 0 m 620 712 q 552 865 620 805 q 364 925 485 925 q 224 913 272 925 l 224 500 q 347 493 279 493 q 552 551 485 493 q 620 712 620 609 m 620 1226 l 354 1103 l 322 1164 l 565 1338 l 620 1226 "},"ñ":{"x_min":78,"x_max":593,"ha":665,"o":"m 593 0 l 483 0 l 483 366 q 455 468 483 435 q 365 502 427 502 q 188 407 273 502 l 188 0 l 78 0 l 78 582 l 182 582 l 182 494 q 397 594 282 594 q 543 540 494 594 q 593 395 593 487 l 593 0 m 545 756 q 413 681 486 681 q 332 707 374 681 q 264 733 296 733 q 184 681 224 733 l 134 746 q 265 822 192 822 q 345 796 306 822 q 414 770 384 770 q 495 821 454 770 l 545 756 "},"‚":{"x_min":37.328125,"x_max":197,"ha":239,"o":"m 197 47 q 159 -65 197 -5 q 52 -167 122 -125 l 37 -144 q 126 -7 103 -86 q 73 14 92 -5 q 54 63 54 34 q 74 111 54 91 q 122 132 94 132 q 176 107 156 132 q 197 47 197 83 "},"Æ":{"x_min":0.390625,"x_max":1326.765625,"ha":1417,"o":"m 1326 0 l 731 0 l 731 328 l 360 328 l 128 0 l 0 0 l 731 1018 l 1326 1018 l 1326 918 l 842 918 l 842 567 l 1278 567 l 1278 467 l 842 467 l 842 100 l 1326 100 l 1326 0 m 731 421 l 731 850 l 426 421 l 731 421 "},"ğ":{"x_min":56,"x_max":631,"ha":708,"o":"m 631 -54 q 565 -247 631 -184 q 383 -311 500 -311 q 186 -279 295 -311 l 202 -179 q 366 -210 292 -210 q 484 -174 447 -210 q 521 -64 521 -139 l 521 49 q 340 -11 448 -11 q 135 71 214 -11 q 56 285 56 154 q 141 503 56 413 q 343 594 226 594 q 527 528 458 594 l 527 582 l 631 582 l 631 -54 m 521 149 l 521 422 q 448 479 493 456 q 355 502 404 502 q 216 440 269 502 q 164 285 164 379 q 217 136 164 195 q 365 76 270 76 q 521 149 459 76 m 539 832 q 493 717 539 764 q 369 670 447 670 q 246 716 292 670 q 201 831 201 763 l 301 840 q 369 753 301 753 q 438 840 438 753 l 539 832 "},"Ū":{"x_min":99,"x_max":865,"ha":964,"o":"m 865 365 q 758 86 865 190 q 480 -17 652 -17 q 201 83 304 -17 q 99 365 99 183 l 99 1018 l 210 1018 l 210 373 q 282 154 210 226 q 480 83 354 83 q 679 155 605 83 q 754 373 754 227 l 754 1018 l 865 1018 l 865 365 m 683 1120 l 284 1120 l 284 1213 l 683 1213 l 683 1120 "},"ª":{"x_min":43,"x_max":422,"ha":475,"o":"m 422 596 l 322 596 l 321 639 q 195 589 271 589 q 86 625 130 589 q 43 723 43 661 q 85 819 43 781 q 196 858 128 858 q 319 830 256 858 l 319 851 q 212 950 319 950 q 103 930 159 950 l 89 1012 q 227 1035 162 1035 q 422 847 422 1035 l 422 596 m 319 705 l 319 759 q 219 790 267 790 q 142 727 142 790 q 224 663 142 663 q 319 705 278 663 "},"Œ":{"x_min":76,"x_max":1409.75,"ha":1500,"o":"m 1409 0 l 833 0 q 658 -8 724 -8 q 406 34 519 -8 q 223 148 294 76 q 114 309 152 219 q 76 498 76 398 q 112 697 76 604 q 218 864 149 790 q 398 981 287 938 q 648 1025 509 1025 q 824 1018 733 1025 l 1409 1018 l 1409 918 l 925 918 l 925 567 l 1361 567 l 1361 467 l 925 467 l 925 100 l 1409 100 l 1409 0 m 814 99 l 814 919 q 634 931 757 931 q 308 811 419 931 q 197 499 197 692 q 315 201 197 315 q 648 88 433 88 q 814 99 755 88 "},"Ą":{"x_min":6.375,"x_max":951.40625,"ha":946,"o":"m 951 -233 q 826 -304 898 -302 q 742 -272 774 -305 q 712 -191 710 -240 q 819 0 713 -115 l 698 282 l 242 282 l 121 0 l 6 0 l 463 1036 l 481 1036 l 938 0 l 894 0 q 800 -177 800 -115 q 844 -232 800 -232 q 909 -194 876 -232 l 951 -233 m 658 375 l 470 812 l 283 375 l 658 375 "},"T":{"x_min":34.6875,"x_max":824.90625,"ha":860,"o":"m 824 918 l 486 918 l 486 0 l 375 0 l 375 918 l 34 918 l 34 1018 l 824 1018 l 824 918 "},"š":{"x_min":37.1875,"x_max":463.8125,"ha":492,"o":"m 439 172 q 384 43 439 97 q 245 -11 330 -11 q 37 65 131 -11 l 92 143 q 239 78 164 78 q 340 161 340 78 q 312 213 340 191 q 244 252 284 236 q 163 286 204 268 q 95 338 123 304 q 68 420 68 372 q 122 543 68 492 q 266 594 177 594 q 436 538 351 594 l 387 456 q 262 505 317 505 q 191 484 215 505 q 168 430 168 463 q 210 373 168 398 q 303 331 252 348 q 396 274 354 314 q 439 172 439 233 m 463 886 l 277 662 l 238 662 l 58 886 l 171 886 l 263 766 l 355 886 l 463 886 "},"Þ":{"x_min":111,"x_max":736,"ha":765,"o":"m 736 522 q 629 269 736 366 q 337 172 522 172 q 222 178 291 172 l 222 0 l 111 0 l 111 1018 l 222 1018 l 222 843 q 344 849 276 849 q 633 755 531 849 q 736 522 736 661 m 617 513 q 548 677 617 609 q 361 746 480 746 q 222 734 270 746 l 222 280 q 344 272 291 272 q 548 340 480 272 q 617 513 617 408 "},"j":{"x_min":-63,"x_max":212.515625,"ha":279,"o":"m 212 784 q 192 736 212 757 q 143 715 172 715 q 93 736 113 715 q 73 784 73 757 q 93 834 73 813 q 143 855 113 855 q 192 834 172 855 q 212 784 212 813 m 197 583 l 197 -127 q 32 -311 197 -311 q -63 -299 -7 -311 l -50 -207 q -1 -212 -24 -212 q 65 -193 43 -212 q 87 -135 87 -175 l 87 583 l 197 583 "},"1":{"x_min":45.375,"x_max":329,"ha":474,"o":"m 329 0 l 219 0 l 219 673 l 78 622 l 45 718 l 310 818 l 329 818 l 329 0 "},"›":{"x_min":62.5,"x_max":318.078125,"ha":386,"o":"m 318 240 l 172 13 l 62 13 l 215 240 l 62 467 l 172 467 l 318 240 "},"→":{"x_min":69.453125,"x_max":941.734375,"ha":988,"o":"m 69 447 l 754 447 l 486 668 l 544 738 l 941 408 l 941 392 l 544 63 l 486 132 l 754 353 l 69 353 l 69 447 "},"<":{"x_min":52.78125,"x_max":500.046875,"ha":547,"o":"m 500 129 l 434 63 l 52 400 l 434 739 l 500 666 l 197 397 l 500 129 "},"t":{"x_min":18.9375,"x_max":391.234375,"ha":410,"o":"m 391 489 l 219 489 l 219 161 q 310 85 219 85 q 359 89 330 85 l 370 0 q 274 -11 314 -11 q 112 172 112 -11 l 112 489 l 18 489 l 18 502 l 112 593 l 112 694 l 219 774 l 219 583 l 391 583 l 391 489 "},"ù":{"x_min":72,"x_max":588,"ha":666,"o":"m 588 0 l 484 0 l 484 82 q 385 16 443 43 q 273 -11 328 -11 q 123 43 175 -11 q 72 187 72 97 l 72 583 l 182 583 l 182 217 q 304 81 182 81 q 478 169 394 81 l 478 583 l 588 583 l 588 0 m 408 716 l 372 658 l 106 781 l 165 890 l 408 716 "},"ï":{"x_min":-46,"x_max":335,"ha":289,"o":"m 200 0 l 90 0 l 90 583 l 200 583 l 200 0 m 335 755 q 314 706 335 727 q 265 686 293 686 q 214 706 235 686 q 194 755 194 727 q 214 805 194 784 q 265 826 235 826 q 314 805 293 826 q 335 755 335 784 m 94 755 q 73 706 94 727 q 23 686 52 686 q -25 706 -4 686 q -46 755 -46 727 q -25 805 -46 784 q 23 826 -4 826 q 73 805 52 826 q 94 755 94 784 "},"ī":{"x_min":-54.171875,"x_max":344.46875,"ha":289,"o":"m 200 0 l 90 0 l 90 583 l 200 583 l 200 0 m 344 696 l -54 696 l -54 789 l 344 789 l 344 696 "},"Ò":{"x_min":76.390625,"x_max":1091.75,"ha":1168,"o":"m 1091 508 q 940 133 1091 283 q 579 -16 788 -16 q 222 132 369 -16 q 76 508 76 281 q 227 884 76 733 q 588 1034 379 1034 q 945 884 798 1034 q 1091 508 1091 734 m 861 204 q 970 508 970 326 q 861 812 970 690 q 584 934 752 934 q 306 812 416 934 q 197 508 197 690 q 306 204 197 326 q 584 81 416 81 q 861 204 752 81 m 662 1161 l 626 1103 l 361 1226 l 419 1335 l 662 1161 "},"Ď":{"x_min":111,"x_max":959,"ha":1035,"o":"m 959 518 q 922 320 959 414 q 816 153 885 226 q 636 35 747 79 q 386 -8 525 -8 q 111 8 269 -8 l 111 1008 q 376 1025 244 1025 q 628 982 515 1025 q 811 868 740 940 q 920 707 882 797 q 959 518 959 618 m 838 518 q 719 816 838 701 q 386 931 601 931 q 222 919 280 931 l 222 99 q 399 88 279 88 q 726 207 615 88 q 838 518 838 326 m 707 1331 l 521 1107 l 482 1107 l 301 1331 l 414 1331 l 507 1211 l 598 1331 l 707 1331 "},"&":{"x_min":69,"x_max":787.640625,"ha":845,"o":"m 712 391 l 787 336 q 645 165 707 232 l 782 51 l 718 -22 l 575 94 q 320 -14 450 -14 q 139 45 210 -14 q 69 211 69 104 q 255 438 69 351 q 201 598 201 527 q 266 750 201 687 q 411 814 331 814 q 553 759 501 814 q 606 636 606 704 q 407 398 606 480 q 577 225 473 316 q 712 391 632 282 m 510 625 q 481 697 510 666 q 411 728 452 728 q 336 691 368 728 q 304 604 304 655 q 355 468 304 547 q 510 625 510 533 m 506 155 q 305 366 376 275 q 211 303 246 344 q 176 209 176 261 q 217 114 176 150 q 326 78 259 78 q 506 155 412 78 "},"˝":{"x_min":130.5625,"x_max":526.4375,"ha":611,"o":"m 337 883 l 183 669 l 130 704 l 244 942 l 337 883 m 526 868 l 370 653 l 318 687 l 431 926 l 526 868 "},"I":{"x_min":118,"x_max":229,"ha":347,"o":"m 229 0 l 118 0 l 118 1018 l 229 1018 l 229 0 "},"ə":{"x_min":46,"x_max":584.921875,"ha":640,"o":"m 46 269 q 50 325 46 304 l 477 325 q 259 500 455 500 q 98 468 194 500 l 79 560 q 269 594 193 594 q 502 510 421 594 q 584 294 584 426 q 508 78 584 168 q 301 -11 432 -11 q 113 67 180 -11 q 46 269 46 145 m 473 242 l 147 242 q 193 125 152 169 q 308 81 234 81 q 420 123 377 81 q 473 242 463 165 "},"G":{"x_min":76,"x_max":993,"ha":1076,"o":"m 612 504 l 993 504 l 993 102 q 620 -17 831 -17 q 238 130 401 -17 q 76 508 76 277 q 121 724 76 623 q 243 891 167 825 q 414 996 319 958 q 608 1035 509 1035 q 813 1004 726 1035 q 989 911 900 973 l 930 823 q 609 935 779 935 q 308 809 420 935 q 197 508 197 684 q 320 204 197 327 q 622 82 444 82 q 882 151 766 82 l 882 400 l 612 400 l 612 504 "},"`":{"x_min":173.625,"x_max":475.03125,"ha":611,"o":"m 475 716 l 438 658 l 173 781 l 231 890 l 475 716 "},"·":{"x_min":138,"x_max":281,"ha":417,"o":"m 138 508 q 158 558 138 537 q 208 579 179 579 q 260 558 239 579 q 281 508 281 537 q 260 456 281 477 q 208 436 239 436 q 158 456 179 436 q 138 508 138 477 "},"ŏ":{"x_min":55.5625,"x_max":645.890625,"ha":701,"o":"m 563 506 q 645 291 645 419 q 563 76 645 163 q 351 -11 481 -11 q 138 76 220 -11 q 55 291 55 163 q 138 506 55 419 q 351 594 220 594 q 563 506 481 594 m 351 505 q 215 446 266 505 q 163 291 163 387 q 215 136 163 195 q 351 77 266 77 q 486 136 434 77 q 537 291 537 195 q 486 446 537 387 q 351 505 434 505 m 520 832 q 474 717 520 764 q 350 670 428 670 q 227 716 273 670 q 182 831 182 763 l 282 840 q 350 753 282 753 q 419 840 419 753 l 520 832 "},"¿":{"x_min":32,"x_max":503.359375,"ha":534,"o":"m 267 956 q 287 1008 267 987 q 339 1029 308 1029 q 389 1008 368 1029 q 410 956 410 987 q 389 906 410 927 q 339 886 368 886 q 287 906 308 886 q 267 956 267 927 m 32 221 q 58 325 32 277 q 121 407 84 373 q 195 474 158 441 q 259 546 233 507 q 286 629 286 586 l 286 736 l 387 736 l 387 600 q 362 510 387 552 q 301 436 337 468 q 230 373 266 404 q 169 304 194 341 q 145 226 145 266 q 311 96 145 96 q 472 127 389 96 l 503 27 q 301 -10 395 -10 q 102 54 172 -10 q 32 221 32 119 "},"ý":{"x_min":5.5625,"x_max":598.65625,"ha":604,"o":"m 598 583 l 186 -300 l 76 -300 l 251 55 l 5 583 l 127 583 l 305 165 l 480 583 l 598 583 m 520 781 l 255 658 l 223 719 l 466 893 l 520 781 "},"º":{"x_min":27.78125,"x_max":473.65625,"ha":501,"o":"m 411 969 q 473 811 473 905 q 411 652 473 716 q 250 588 350 588 q 88 652 150 588 q 27 811 27 716 q 88 970 27 905 q 250 1034 150 1034 q 411 969 350 1034 m 130 811 q 162 709 130 747 q 250 672 194 672 q 338 709 305 672 q 370 811 370 747 q 338 913 370 875 q 250 951 305 951 q 162 913 194 951 q 130 811 130 876 "},"ź":{"x_min":25,"x_max":534.765625,"ha":563,"o":"m 534 566 l 193 94 l 527 94 l 527 0 l 31 0 l 25 15 l 366 489 l 51 489 l 51 583 l 527 583 l 534 566 m 498 781 l 233 658 l 201 719 l 444 893 l 498 781 "},"ű":{"x_min":72,"x_max":589,"ha":666,"o":"m 588 0 l 484 0 l 484 82 q 385 16 443 43 q 273 -11 328 -11 q 123 43 175 -11 q 72 187 72 97 l 72 583 l 182 583 l 182 217 q 304 81 182 81 q 478 169 394 81 l 478 583 l 588 583 l 588 0 m 400 883 l 245 669 l 193 704 l 306 942 l 400 883 m 589 868 l 433 652 l 380 687 l 494 926 l 589 868 "},"Ǽ":{"x_min":0.390625,"x_max":1326.765625,"ha":1417,"o":"m 1326 0 l 731 0 l 731 328 l 360 328 l 128 0 l 0 0 l 731 1018 l 1326 1018 l 1326 918 l 842 918 l 842 567 l 1278 567 l 1278 467 l 842 467 l 842 100 l 1326 100 l 1326 0 m 731 421 l 731 850 l 426 421 l 731 421 m 1125 1226 l 859 1103 l 827 1164 l 1070 1338 l 1125 1226 "},"ń":{"x_min":78,"x_max":593,"ha":665,"o":"m 593 0 l 483 0 l 483 366 q 455 468 483 435 q 365 502 427 502 q 188 407 273 502 l 188 0 l 78 0 l 78 583 l 182 583 l 182 494 q 397 594 282 594 q 543 540 494 594 q 593 395 593 487 l 593 0 m 554 781 l 288 658 l 256 719 l 500 893 l 554 781 "},"Ș":{"x_min":34.28125,"x_max":640,"ha":697,"o":"m 640 274 q 550 67 640 151 q 328 -17 460 -17 q 34 77 178 -17 l 88 174 q 334 84 214 84 q 476 135 427 84 q 526 261 526 186 q 485 378 526 331 q 324 477 445 424 q 137 599 192 535 q 83 756 83 663 q 170 952 83 870 q 394 1035 257 1035 q 620 965 520 1035 l 570 871 q 387 934 484 934 q 244 885 295 934 q 194 762 194 836 q 234 664 194 708 q 367 578 275 619 q 583 442 526 507 q 640 274 640 377 m 401 -185 q 363 -298 401 -238 q 256 -400 326 -358 l 241 -377 q 330 -240 307 -319 q 277 -218 296 -238 q 258 -169 258 -198 q 278 -121 258 -141 q 326 -101 298 -101 q 380 -125 360 -101 q 401 -185 401 -149 "},";":{"x_min":68.328125,"x_max":228,"ha":306,"o":"m 228 47 q 190 -65 228 -5 q 83 -167 153 -125 l 68 -144 q 157 -7 134 -86 q 104 14 123 -5 q 85 63 85 34 q 105 111 85 91 q 153 132 125 132 q 207 107 187 132 q 228 47 228 83 m 81 442 q 101 492 81 471 q 153 513 122 513 q 203 492 182 513 q 224 442 224 471 q 203 390 224 411 q 153 370 182 370 q 101 390 122 370 q 81 442 81 411 "}," ":{"x_min":0,"x_max":0,"ha":347},"Ġ":{"x_min":76,"x_max":993,"ha":1076,"o":"m 612 504 l 993 504 l 993 102 q 620 -17 831 -17 q 238 130 401 -17 q 76 508 76 277 q 121 724 76 623 q 243 891 167 825 q 414 996 319 958 q 608 1035 509 1035 q 813 1004 726 1035 q 988 911 899 973 l 930 823 q 609 935 779 935 q 308 809 420 935 q 197 508 197 684 q 320 204 197 327 q 622 82 444 82 q 882 151 766 82 l 882 400 l 612 400 l 612 504 m 527 1200 q 547 1250 527 1229 q 596 1271 568 1271 q 646 1250 625 1271 q 667 1200 667 1229 q 646 1151 667 1172 q 596 1131 625 1131 q 547 1151 568 1131 q 527 1200 527 1172 "},"6":{"x_min":61,"x_max":603,"ha":670,"o":"m 603 266 q 529 70 603 155 q 333 -14 455 -14 q 136 65 212 -14 q 61 272 61 145 q 500 839 61 605 l 547 755 q 208 451 283 609 q 366 514 269 514 q 535 441 468 514 q 603 266 603 369 m 496 251 q 453 378 496 329 q 338 428 411 428 q 213 380 258 428 q 169 252 169 332 q 217 129 169 180 q 333 79 265 79 q 450 129 405 79 q 496 251 496 180 "},"n":{"x_min":78,"x_max":593,"ha":665,"o":"m 593 0 l 483 0 l 483 366 q 455 468 483 435 q 365 502 427 502 q 188 407 273 502 l 188 0 l 78 0 l 78 582 l 182 582 l 182 494 q 397 594 282 594 q 543 540 494 594 q 593 395 593 487 l 593 0 "},"ģ":{"x_min":56,"x_max":631,"ha":708,"o":"m 631 -54 q 565 -247 631 -184 q 383 -311 500 -311 q 187 -279 295 -311 l 202 -179 q 366 -210 293 -210 q 484 -174 447 -210 q 521 -63 521 -139 l 521 50 q 340 -10 448 -10 q 135 71 214 -10 q 56 285 56 154 q 141 503 56 413 q 343 594 226 594 q 527 528 458 594 l 527 582 l 631 582 l 631 -54 m 521 149 l 521 422 q 448 479 493 456 q 355 502 404 502 q 216 440 269 502 q 164 285 164 379 q 217 136 164 195 q 365 76 270 76 q 521 149 459 76 m 297 806 q 334 919 297 859 q 441 1021 371 979 l 456 998 q 367 861 390 940 q 420 839 401 859 q 440 790 440 819 q 419 742 440 762 q 371 722 399 722 q 317 746 337 722 q 297 806 297 770 "},"℗":{"x_min":69.453125,"x_max":1100.09375,"ha":1170,"o":"m 697 594 q 669 661 697 634 q 589 689 641 689 q 533 683 569 689 l 533 497 q 581 494 566 494 q 667 521 638 494 q 697 594 697 548 m 787 595 q 732 467 787 516 q 584 419 678 419 q 533 422 566 419 l 533 255 l 447 255 l 447 760 q 576 768 513 768 q 731 719 675 768 q 787 595 787 670 m 948 880 q 1100 508 1100 726 q 949 136 1100 290 q 584 -16 798 -16 q 220 136 370 -16 q 69 508 69 290 q 220 880 69 726 q 584 1034 370 1034 q 948 880 798 1034 m 1007 508 q 883 822 1007 693 q 584 952 759 952 q 286 822 409 952 q 162 508 162 693 q 286 195 162 325 q 584 65 409 65 q 883 195 759 65 q 1007 508 1007 325 "},"p":{"x_min":78,"x_max":652,"ha":708,"o":"m 652 295 q 568 77 652 166 q 356 -11 485 -11 q 187 31 264 -11 l 187 -300 l 78 -300 l 78 583 l 182 583 l 182 525 q 377 594 261 594 q 572 510 493 594 q 652 295 652 426 m 544 294 q 492 442 544 383 q 356 502 441 502 q 186 433 255 502 l 186 145 q 353 79 244 79 q 490 139 437 79 q 544 294 544 199 "},"‡":{"x_min":41.984375,"x_max":597.40625,"ha":632,"o":"m 597 418 l 371 418 l 371 217 l 267 217 l 267 418 l 48 418 l 48 512 l 267 512 l 267 723 l 41 723 l 41 817 l 267 817 l 267 1018 l 371 1018 l 371 817 l 590 817 l 590 723 l 371 723 l 371 512 l 597 512 l 597 418 "},"ň":{"x_min":78,"x_max":593,"ha":665,"o":"m 593 0 l 483 0 l 483 366 q 455 468 483 435 q 365 502 427 502 q 188 407 273 502 l 188 0 l 78 0 l 78 583 l 182 583 l 182 494 q 397 594 282 594 q 543 540 494 594 q 593 395 593 487 l 593 0 m 537 886 l 351 662 l 312 662 l 132 886 l 244 886 l 337 766 l 429 886 l 537 886 "},"ę":{"x_min":55.453125,"x_max":594,"ha":640,"o":"m 594 314 q 590 259 594 279 l 163 259 q 381 83 185 83 q 541 114 446 83 l 559 26 q 441 -177 441 -101 q 485 -232 441 -232 q 549 -194 516 -232 l 591 -233 q 466 -304 538 -302 q 384 -273 415 -305 q 353 -191 353 -241 q 459 -1 353 -109 q 370 -11 404 -11 q 137 72 219 -11 q 55 288 55 156 q 131 504 55 415 q 338 594 208 594 q 526 515 459 594 q 594 314 594 437 m 166 342 l 493 342 q 446 457 487 413 q 331 502 405 502 q 219 459 262 502 q 166 342 176 417 "},"S":{"x_min":34.828125,"x_max":640,"ha":697,"o":"m 640 274 q 550 67 640 151 q 329 -17 460 -17 q 34 77 179 -17 l 89 174 q 334 84 215 84 q 476 135 427 84 q 526 261 526 186 q 485 378 526 331 q 324 477 445 424 q 137 599 192 535 q 83 756 83 663 q 170 952 83 870 q 394 1035 257 1035 q 620 965 520 1035 l 570 871 q 387 934 484 934 q 244 885 295 934 q 194 762 194 836 q 234 664 194 708 q 367 578 275 619 q 583 442 526 507 q 640 274 640 377 "},"/":{"x_min":38.890625,"x_max":468.09375,"ha":468,"o":"m 468 1018 l 137 -300 l 38 -300 l 370 1018 l 468 1018 "},"į":{"x_min":0.9375,"x_max":240.40625,"ha":278,"o":"m 240 -233 q 115 -304 187 -302 q 31 -272 63 -305 q 1 -191 0 -240 q 24 -107 2 -149 q 107 0 47 -65 l 85 0 l 85 583 l 195 583 l 195 0 l 183 0 q 89 -177 89 -115 q 133 -232 89 -232 q 198 -194 165 -232 l 240 -233 m 209 784 q 189 736 209 757 q 140 715 169 715 q 90 736 111 715 q 70 784 70 757 q 90 834 70 813 q 140 855 111 855 q 189 834 169 855 q 209 784 209 813 "},"y":{"x_min":5.5625,"x_max":598.65625,"ha":604,"o":"m 598 583 l 186 -300 l 76 -300 l 251 55 l 5 583 l 127 583 l 305 165 l 480 583 l 598 583 "},"ǿ":{"x_min":39.328125,"x_max":662.65625,"ha":702,"o":"m 662 533 l 594 469 q 646 291 646 393 q 564 75 646 162 q 352 -11 482 -11 q 162 54 239 -11 l 93 -11 l 39 43 l 110 109 q 56 291 56 190 q 138 507 56 420 q 351 594 221 594 q 545 525 468 594 l 610 588 l 662 533 m 183 180 l 476 459 q 351 505 429 505 q 213 448 264 505 q 163 291 163 391 q 183 180 163 227 m 519 397 l 229 119 q 351 78 277 78 q 488 134 437 78 q 539 291 539 191 q 519 397 539 350 m 569 781 l 304 658 l 272 719 l 515 893 l 569 781 "},"g":{"x_min":56,"x_max":631,"ha":709,"o":"m 631 -54 q 565 -247 631 -184 q 383 -311 500 -311 q 187 -279 295 -311 l 202 -179 q 366 -210 293 -210 q 484 -174 447 -210 q 521 -64 521 -139 l 521 49 q 340 -11 448 -11 q 135 71 214 -11 q 56 285 56 154 q 141 503 56 413 q 343 594 226 594 q 527 528 458 594 l 527 582 l 631 582 l 631 -54 m 521 149 l 521 422 q 448 479 493 456 q 355 502 404 502 q 216 440 269 502 q 164 285 164 379 q 217 136 164 195 q 365 76 270 76 q 521 149 459 76 "},"–":{"x_min":69.453125,"x_max":625.046875,"ha":695,"o":"m 625 289 l 69 289 l 69 383 l 625 383 l 625 289 "},"ë":{"x_min":55.078125,"x_max":594,"ha":640,"o":"m 594 314 q 589 259 594 279 l 162 259 q 380 83 184 83 q 541 114 445 83 l 560 22 q 370 -11 446 -11 q 137 72 218 -11 q 55 288 55 156 q 131 504 55 415 q 338 594 207 594 q 526 515 459 594 q 594 314 594 437 m 166 342 l 493 342 q 446 457 487 413 q 331 502 405 502 q 219 459 262 502 q 166 342 176 417 m 526 755 q 505 706 526 727 q 456 686 484 686 q 406 706 427 686 q 386 755 386 727 q 406 805 386 784 q 456 826 427 826 q 505 805 484 826 q 526 755 526 784 m 286 755 q 265 706 286 727 q 215 686 244 686 q 166 706 187 686 q 146 755 146 727 q 166 805 146 784 q 215 826 187 826 q 265 805 244 826 q 286 755 286 784 "},"ƒ":{"x_min":77.78125,"x_max":530.59375,"ha":540,"o":"m 530 802 l 512 707 q 454 714 484 714 q 343 677 377 714 q 297 548 308 640 l 288 476 l 427 476 l 427 382 l 277 382 l 234 0 l 125 0 q 132 63 127 23 q 146 186 137 102 q 161 326 155 270 l 168 382 l 77 382 l 79 391 l 180 486 l 186 533 q 447 814 218 814 q 530 802 487 814 "},"J":{"x_min":19.140625,"x_max":526,"ha":630,"o":"m 526 1018 l 526 302 q 451 71 526 159 q 238 -17 376 -17 q 19 54 109 -17 l 76 139 q 239 84 151 84 q 372 137 330 84 q 415 303 415 191 l 415 1018 l 526 1018 "},"Ã":{"x_min":6.9375,"x_max":938.96875,"ha":946,"o":"m 938 0 l 819 0 l 698 282 l 243 282 l 122 0 l 6 0 l 463 1036 l 481 1036 l 938 0 m 658 375 l 470 812 l 283 375 l 658 375 m 682 1200 q 550 1125 623 1125 q 469 1151 511 1125 q 401 1178 433 1178 q 320 1126 361 1178 l 270 1191 q 402 1267 329 1267 q 481 1240 441 1267 q 551 1214 520 1214 q 632 1265 591 1214 l 682 1200 "},"ŷ":{"x_min":5.5625,"x_max":598.65625,"ha":604,"o":"m 598 583 l 186 -300 l 76 -300 l 251 55 l 5 583 l 127 583 l 305 164 l 480 583 l 598 583 m 504 679 l 390 679 l 297 797 l 205 679 l 98 678 l 283 901 l 323 901 l 504 679 "},"ŕ":{"x_min":78,"x_max":440.3125,"ha":411,"o":"m 391 487 q 188 398 249 487 l 188 0 l 78 0 l 78 583 l 182 583 l 182 486 q 391 594 265 594 l 391 487 m 440 781 l 175 658 l 143 719 l 386 893 l 440 781 "},"©":{"x_min":69.453125,"x_max":1100.09375,"ha":1170,"o":"m 948 880 q 1100 508 1100 726 q 949 136 1100 290 q 584 -16 798 -16 q 220 136 370 -16 q 69 508 69 290 q 220 880 69 726 q 584 1034 370 1034 q 948 880 798 1034 m 1007 508 q 883 822 1007 693 q 584 952 759 952 q 286 822 409 952 q 162 508 162 693 q 286 195 162 325 q 584 65 409 65 q 883 195 759 65 q 1007 508 1007 325 m 776 298 q 609 251 699 251 q 411 324 488 251 q 335 514 335 398 q 412 701 335 626 q 609 777 490 777 q 773 730 694 777 l 744 657 q 608 696 673 696 q 476 645 524 696 q 429 514 429 595 q 478 382 429 433 q 610 332 527 332 q 748 372 680 332 l 776 298 "},"˘":{"x_min":138,"x_max":476,"ha":611,"o":"m 476 832 q 430 717 476 764 q 306 670 384 670 q 183 716 229 670 q 138 831 138 763 l 238 840 q 306 753 238 753 q 375 840 375 753 l 476 832 "},"Ă":{"x_min":6.9375,"x_max":938.96875,"ha":946,"o":"m 938 0 l 819 0 l 698 282 l 243 282 l 122 0 l 6 0 l 463 1036 l 481 1036 l 938 0 m 658 375 l 470 812 l 283 375 l 658 375 m 642 1276 q 596 1161 642 1208 q 472 1114 550 1114 q 349 1161 395 1114 q 304 1276 304 1208 l 404 1285 q 472 1197 404 1197 q 541 1284 541 1197 l 642 1276 "},"D":{"x_min":111,"x_max":959,"ha":1035,"o":"m 959 518 q 922 320 959 414 q 816 153 885 226 q 636 35 747 79 q 386 -8 525 -8 q 111 8 269 -8 l 111 1008 q 376 1025 244 1025 q 628 982 515 1025 q 811 868 740 940 q 920 707 882 797 q 959 518 959 618 m 838 518 q 719 816 838 701 q 386 931 601 931 q 222 919 280 931 l 222 99 q 399 88 279 88 q 726 207 615 88 q 838 518 838 326 "},"ÿ":{"x_min":5.15625,"x_max":598.234375,"ha":604,"o":"m 598 583 l 185 -300 l 75 -300 l 251 55 l 5 583 l 127 583 l 305 165 l 480 583 l 598 583 m 491 755 q 470 706 491 727 q 421 686 449 686 q 371 706 392 686 q 351 755 351 727 q 371 805 351 784 q 421 826 392 826 q 470 805 449 826 q 491 755 491 784 m 251 755 q 230 706 251 727 q 180 686 209 686 q 131 706 152 686 q 111 755 111 727 q 131 805 111 784 q 180 826 152 826 q 230 805 209 826 q 251 755 251 784 "},"ĺ":{"x_min":83,"x_max":402.8125,"ha":276,"o":"m 193 0 l 83 0 l 83 1018 l 193 1018 l 193 0 m 402 1212 l 137 1089 l 105 1150 l 348 1324 l 402 1212 "},"ł":{"x_min":31,"x_max":261,"ha":292,"o":"m 261 498 l 200 469 l 201 0 l 91 0 l 91 413 l 31 384 l 31 494 l 92 523 l 92 1018 l 200 1018 l 201 579 l 261 608 l 261 498 "},"Ł":{"x_min":30,"x_max":706.765625,"ha":732,"o":"m 706 0 l 111 0 l 111 420 l 30 384 l 30 494 l 111 530 l 111 1018 l 222 1018 l 222 580 l 343 636 l 343 526 q 222 470 222 472 l 222 100 l 706 100 l 706 0 "},"$":{"x_min":46.109375,"x_max":550,"ha":610,"o":"m 312 904 l 395 897 l 388 809 q 538 752 469 799 l 488 665 q 381 713 438 702 l 360 445 q 504 351 459 400 q 550 222 550 302 q 484 60 550 126 q 324 -13 419 -5 l 318 -104 l 235 -97 l 240 -10 q 46 69 141 1 l 101 158 q 248 84 175 101 l 271 372 q 130 463 176 415 q 85 588 85 511 q 145 738 85 674 q 303 812 206 802 l 312 904 m 443 213 q 352 337 443 288 l 332 82 q 413 125 383 91 q 443 213 443 159 m 191 595 q 279 484 191 534 l 297 715 q 191 595 191 695 "},"w":{"x_min":11.109375,"x_max":822.28125,"ha":828,"o":"m 822 583 l 615 -15 l 597 -15 l 419 380 l 238 -15 l 220 -15 l 11 583 l 133 583 l 247 202 l 408 586 l 426 586 l 598 202 l 705 583 l 822 583 "},"\\":{"x_min":0,"x_max":429.203125,"ha":468,"o":"m 429 -300 l 330 -300 l 0 1018 l 97 1018 l 429 -300 "},"Ì":{"x_min":-50,"x_max":251.40625,"ha":346,"o":"m 229 0 l 118 0 l 118 1018 l 229 1018 l 229 0 m 251 1161 l 215 1103 l -50 1226 l 8 1335 l 251 1161 "},"Ç":{"x_min":76,"x_max":952.625,"ha":992,"o":"m 754 -202 q 718 -292 754 -256 q 616 -329 683 -329 q 466 -281 548 -329 l 498 -217 q 616 -255 561 -255 q 656 -241 641 -255 q 671 -205 671 -227 q 639 -158 671 -178 q 541 -134 608 -138 l 536 -122 l 563 -14 q 212 147 348 2 q 76 508 76 293 q 230 884 76 733 q 616 1035 385 1035 q 952 937 795 1035 l 906 843 q 606 931 755 931 q 307 812 417 931 q 197 508 197 693 q 311 205 197 324 q 616 87 426 87 q 916 174 766 87 l 952 80 q 631 -17 805 -11 l 617 -71 q 754 -202 754 -101 "},"C":{"x_min":76,"x_max":952.625,"ha":992,"o":"m 952 80 q 616 -17 795 -17 q 228 131 380 -17 q 76 508 76 279 q 230 884 76 733 q 616 1035 385 1035 q 952 937 795 1035 l 906 843 q 606 931 755 931 q 307 812 417 931 q 197 508 197 693 q 311 205 197 324 q 616 87 426 87 q 916 174 766 87 l 952 80 "},"Ē":{"x_min":111,"x_max":706.765625,"ha":797,"o":"m 706 0 l 111 0 l 111 1018 l 706 1018 l 706 918 l 222 918 l 222 567 l 658 567 l 658 467 l 222 467 l 222 100 l 706 100 l 706 0 m 612 1140 l 214 1140 l 214 1233 l 612 1233 l 612 1140 "},"!":{"x_min":82,"x_max":225,"ha":306,"o":"m 214 1018 l 194 252 l 111 252 l 92 1018 l 214 1018 m 225 61 q 204 9 225 30 q 152 -11 183 -11 q 102 9 123 -11 q 82 61 82 30 q 102 111 82 90 q 152 132 123 132 q 204 111 183 132 q 225 61 225 90 "},"ç":{"x_min":56,"x_max":570.359375,"ha":594,"o":"m 479 -202 q 443 -292 479 -256 q 341 -329 408 -329 q 191 -281 273 -329 l 223 -217 q 341 -255 286 -255 q 381 -241 366 -255 q 396 -205 396 -227 q 364 -158 396 -178 q 266 -134 333 -138 l 261 -122 l 291 -3 q 121 100 186 19 q 56 288 56 181 q 145 505 56 416 q 371 594 235 594 q 570 534 475 594 l 525 451 q 362 500 443 500 q 218 443 274 500 q 162 288 162 386 q 223 139 162 196 q 368 83 285 83 q 531 131 449 83 l 569 48 q 371 -11 474 -11 l 358 -11 l 343 -70 q 479 -202 479 -101 "},"È":{"x_min":111,"x_max":706.765625,"ha":797,"o":"m 706 0 l 111 0 l 111 1018 l 706 1018 l 706 918 l 222 918 l 222 567 l 658 567 l 658 467 l 222 467 l 222 100 l 706 100 l 706 0 m 491 1161 l 455 1103 l 190 1226 l 248 1335 l 491 1161 "},"X":{"x_min":27.78125,"x_max":900.078125,"ha":928,"o":"m 900 0 l 766 0 l 462 429 l 156 0 l 27 0 l 402 506 l 27 1018 l 161 1018 l 465 588 l 770 1018 l 900 1018 l 525 511 l 900 0 "},"ô":{"x_min":55.5625,"x_max":645.890625,"ha":701,"o":"m 563 506 q 645 291 645 419 q 563 76 645 163 q 351 -11 481 -11 q 138 76 220 -11 q 55 291 55 163 q 138 506 55 419 q 351 594 220 594 q 563 506 481 594 m 351 505 q 215 446 266 505 q 163 291 163 387 q 215 136 163 195 q 351 77 266 77 q 486 136 434 77 q 537 291 537 195 q 486 446 537 387 q 351 505 434 505 m 552 678 l 438 678 l 345 796 l 254 678 l 147 678 l 331 901 l 372 901 l 552 678 "},"Ė":{"x_min":111,"x_max":706.765625,"ha":797,"o":"m 706 0 l 111 0 l 111 1018 l 706 1018 l 706 918 l 222 918 l 222 567 l 658 567 l 658 467 l 222 467 l 222 100 l 706 100 l 706 0 m 343 1200 q 363 1250 343 1229 q 412 1271 384 1271 q 462 1250 441 1271 q 483 1200 483 1229 q 462 1151 483 1172 q 412 1131 441 1131 q 363 1151 384 1131 q 343 1200 343 1172 "},"Ā":{"x_min":6.9375,"x_max":938.96875,"ha":946,"o":"m 938 0 l 819 0 l 698 282 l 243 282 l 122 0 l 6 0 l 463 1036 l 481 1036 l 938 0 m 658 375 l 470 812 l 283 375 l 658 375 m 672 1140 l 273 1140 l 273 1233 l 672 1233 l 672 1140 "},"ċ":{"x_min":55.5625,"x_max":569.484375,"ha":594,"o":"m 569 48 q 370 -11 475 -11 q 144 75 233 -11 q 55 288 55 161 q 145 505 55 416 q 370 594 234 594 q 569 534 475 594 l 525 451 q 361 500 443 500 q 217 443 273 500 q 161 288 161 386 q 222 139 161 196 q 368 83 284 83 q 531 131 450 83 l 569 48 m 282 755 q 302 805 282 784 q 351 826 323 826 q 401 805 380 826 q 422 755 422 784 q 401 706 422 727 q 351 686 380 686 q 302 706 323 686 q 282 755 282 727 "},"đ":{"x_min":56,"x_max":708.78125,"ha":709,"o":"m 631 0 l 527 0 l 526 60 q 340 -11 458 -11 q 135 71 214 -11 q 56 285 56 154 q 141 503 56 413 q 343 594 226 594 q 521 535 448 594 l 521 779 l 320 779 l 320 869 l 521 869 l 521 1018 l 631 1018 l 631 869 l 708 869 l 708 779 l 631 779 l 631 0 m 521 157 l 521 423 q 351 502 457 502 q 216 442 269 502 q 164 288 164 382 q 216 139 164 198 q 358 81 269 81 q 521 157 455 81 "},"℠":{"x_min":32.34375,"x_max":595.875,"ha":628,"o":"m 32 743 l 49 799 q 132 770 89 770 q 171 801 171 770 q 159 826 171 815 q 113 853 148 836 q 46 940 46 885 q 73 1000 46 976 q 148 1024 100 1024 q 231 1000 196 1024 l 215 944 q 148 968 179 968 q 110 940 110 968 q 122 915 110 925 q 168 891 134 905 q 235 804 235 862 q 207 738 235 764 q 130 713 180 713 q 32 743 73 713 m 595 717 l 536 717 l 531 879 l 444 757 l 437 757 l 348 879 l 345 717 l 284 717 l 298 1021 l 306 1021 l 441 839 l 573 1021 l 581 1021 l 595 717 "},"Ẃ":{"x_min":13.890625,"x_max":1258.4375,"ha":1272,"o":"m 1258 1018 l 977 -16 l 955 -19 l 633 786 l 316 -19 l 294 -16 l 13 1018 l 126 1018 l 327 268 l 629 1026 l 643 1026 l 945 272 l 1145 1018 l 1258 1018 m 855 1226 l 590 1103 l 558 1164 l 801 1338 l 855 1226 "},"Ŀ":{"x_min":111,"x_max":706.765625,"ha":732,"o":"m 706 0 l 111 0 l 111 1018 l 222 1018 l 222 100 l 706 100 l 706 0 m 481 515 q 502 466 481 487 q 551 445 523 445 q 601 466 580 445 q 622 515 622 487 q 601 565 622 544 q 551 586 580 586 q 502 565 523 586 q 481 515 481 544 "},"}":{"x_min":25,"x_max":378.0625,"ha":413,"o":"m 378 315 l 346 315 q 278 293 297 315 q 260 224 260 271 l 260 -69 q 25 -310 260 -310 l 25 -214 q 126 -182 93 -214 q 160 -73 160 -150 l 160 201 q 178 300 160 269 q 254 358 196 331 q 178 416 196 384 q 160 515 160 448 l 160 792 q 126 899 160 867 q 25 931 93 931 l 25 1028 q 260 786 260 1028 l 260 493 q 278 423 260 444 q 346 403 297 403 l 378 403 l 378 315 "},"â":{"x_min":45.859375,"x_max":539,"ha":606,"o":"m 539 0 l 438 0 l 437 61 q 256 -11 362 -11 q 106 39 166 -11 q 45 176 45 90 q 105 307 45 256 q 255 359 165 359 q 432 320 338 359 l 432 354 q 395 463 432 429 q 279 498 358 498 q 126 468 197 498 l 108 563 q 293 594 208 594 q 478 533 418 594 q 539 346 539 473 l 539 0 m 432 149 l 432 228 q 273 276 345 276 q 183 250 216 276 q 150 177 150 225 q 185 102 150 128 q 284 77 220 77 q 432 149 369 77 m 515 679 l 401 679 l 308 797 l 216 679 l 109 679 l 294 901 l 334 901 l 515 679 "},"ø":{"x_min":39.328125,"x_max":662.65625,"ha":702,"o":"m 662 533 l 594 469 q 646 291 646 393 q 564 75 646 162 q 352 -11 482 -11 q 162 54 239 -11 l 93 -11 l 39 43 l 110 109 q 56 291 56 190 q 138 507 56 420 q 351 594 221 594 q 545 525 468 594 l 610 588 l 662 533 m 183 180 l 476 459 q 351 505 429 505 q 213 448 264 505 q 163 291 163 391 q 183 180 163 227 m 519 396 l 229 119 q 351 78 277 78 q 488 134 437 78 q 539 291 539 191 q 519 396 539 349 "},"‰":{"x_min":69.453125,"x_max":1254.265625,"ha":1324,"o":"m 301 519 q 323 609 323 555 q 301 699 323 663 q 238 734 279 734 q 176 699 198 734 q 154 609 154 663 q 176 520 154 555 q 238 484 198 484 q 301 519 279 484 m 237 405 q 113 463 158 405 q 69 609 69 522 q 115 755 69 697 q 240 813 161 813 q 365 755 320 813 q 409 609 409 697 q 363 463 409 522 q 237 405 318 405 m 826 774 l 161 -26 l 98 25 l 763 826 l 826 774 m 748 100 q 770 190 770 136 q 748 279 770 244 q 686 315 726 315 q 623 279 645 315 q 601 190 601 244 q 623 100 601 136 q 686 65 645 65 q 748 100 726 65 m 684 -14 q 560 44 604 -14 q 516 190 516 102 q 561 336 516 277 q 687 394 607 394 q 811 336 766 394 q 855 190 855 277 q 809 44 855 102 q 684 -14 763 -14 m 1147 100 q 1169 190 1169 136 q 1147 279 1169 244 q 1084 315 1125 315 q 1022 279 1044 315 q 1000 190 1000 244 q 1022 100 1000 136 q 1084 65 1044 65 q 1147 100 1125 65 m 1083 -14 q 959 44 1002 -14 q 915 190 915 102 q 960 336 915 277 q 1086 394 1005 394 q 1209 336 1165 394 q 1254 190 1254 277 q 1208 44 1254 102 q 1083 -14 1162 -14 "},"Ä":{"x_min":6.9375,"x_max":938.96875,"ha":946,"o":"m 938 0 l 819 0 l 698 282 l 243 282 l 122 0 l 6 0 l 463 1036 l 481 1036 l 938 0 m 658 375 l 470 812 l 283 375 l 658 375 m 662 1200 q 641 1151 662 1172 q 592 1131 620 1131 q 542 1151 563 1131 q 522 1200 522 1172 q 542 1250 522 1229 q 592 1271 563 1271 q 641 1250 620 1271 q 662 1200 662 1229 m 422 1200 q 401 1151 422 1172 q 351 1131 380 1131 q 302 1151 323 1131 q 282 1200 282 1172 q 302 1250 282 1229 q 351 1271 323 1271 q 401 1250 380 1271 q 422 1200 422 1229 "},"ř":{"x_min":18.5,"x_max":424.078125,"ha":411,"o":"m 391 487 q 188 398 249 487 l 188 0 l 78 0 l 78 583 l 182 583 l 182 486 q 391 594 265 594 l 391 487 m 424 886 l 237 662 l 199 662 l 18 886 l 131 886 l 224 766 l 315 886 l 424 886 "},"—":{"x_min":69.453125,"x_max":972.296875,"ha":1042,"o":"m 972 289 l 69 289 l 69 383 l 972 383 l 972 289 "},"N":{"x_min":111,"x_max":897,"ha":1008,"o":"m 897 -14 l 883 -19 l 222 772 l 222 0 l 111 0 l 111 1032 l 133 1038 l 786 258 l 786 1018 l 897 1018 l 897 -14 "},"⁄":{"x_min":36.109375,"x_max":762.5625,"ha":800,"o":"m 762 774 l 98 -26 l 36 25 l 701 826 l 762 774 "},"2":{"x_min":23.078125,"x_max":536,"ha":605,"o":"m 536 0 l 30 0 l 23 15 q 303 336 220 226 q 385 459 359 407 q 412 571 412 511 q 371 674 412 636 q 260 713 331 713 q 88 660 166 713 l 55 748 q 259 814 153 814 q 453 749 381 814 q 526 583 526 684 q 402 301 526 462 q 228 99 321 198 l 536 99 l 536 0 "},"ü":{"x_min":72,"x_max":587,"ha":665,"o":"m 587 0 l 483 0 l 483 81 q 385 16 442 43 q 273 -11 327 -11 q 123 43 174 -11 q 72 187 72 97 l 72 583 l 182 583 l 182 217 q 303 81 182 81 q 477 169 393 81 l 477 583 l 587 583 l 587 0 m 519 755 q 498 706 519 727 q 449 686 477 686 q 399 706 420 686 q 379 755 379 727 q 399 805 379 784 q 449 826 420 826 q 498 805 477 826 q 519 755 519 784 m 279 755 q 258 706 279 727 q 208 686 237 686 q 159 706 180 686 q 139 755 139 727 q 159 805 139 784 q 208 826 180 826 q 258 805 237 826 q 279 755 279 784 "},"˜":{"x_min":98.625,"x_max":509.765625,"ha":611,"o":"m 509 756 q 377 681 451 681 q 297 707 338 681 q 229 733 261 733 q 148 681 188 733 l 98 746 q 230 822 156 822 q 309 796 269 822 q 379 770 348 770 q 459 821 419 770 l 509 756 "},"Ó":{"x_min":76.390625,"x_max":1091.75,"ha":1168,"o":"m 1091 508 q 940 133 1091 283 q 579 -16 788 -16 q 222 132 369 -16 q 76 508 76 281 q 227 884 76 733 q 588 1034 379 1034 q 945 884 798 1034 q 1091 508 1091 734 m 861 204 q 970 508 970 326 q 861 812 970 690 q 584 934 752 934 q 306 812 416 934 q 197 508 197 690 q 306 204 197 326 q 584 81 416 81 q 861 204 752 81 m 802 1226 l 537 1103 l 505 1164 l 748 1338 l 802 1226 "},"ˇ":{"x_min":100.015625,"x_max":505.59375,"ha":611,"o":"m 505 886 l 319 663 l 280 663 l 100 886 l 212 886 l 305 766 l 397 886 l 505 886 "},"Ÿ":{"x_min":28.03125,"x_max":854.359375,"ha":882,"o":"m 854 1018 l 496 451 l 496 0 l 385 0 l 385 452 l 28 1018 l 153 1018 l 444 545 l 732 1018 l 854 1018 m 631 1179 q 610 1130 631 1151 q 561 1110 589 1110 q 511 1130 532 1110 q 491 1179 491 1151 q 511 1229 491 1208 q 561 1250 532 1250 q 610 1229 589 1250 q 631 1179 631 1208 m 390 1179 q 369 1130 390 1151 q 319 1110 348 1110 q 270 1130 291 1110 q 250 1179 250 1151 q 270 1229 250 1208 q 319 1250 291 1250 q 369 1229 348 1250 q 390 1179 390 1208 "},"ų":{"x_min":72,"x_max":618.40625,"ha":666,"o":"m 618 -233 q 493 -304 565 -302 q 409 -272 441 -305 q 379 -191 377 -240 q 402 -107 380 -149 q 485 0 425 -65 l 484 0 l 483 81 q 385 16 443 43 q 273 -11 327 -11 q 123 43 174 -11 q 72 187 72 97 l 72 583 l 182 583 l 182 216 q 304 81 182 81 q 478 169 394 81 l 478 583 l 588 583 l 588 0 l 561 0 q 467 -177 467 -115 q 511 -232 467 -232 q 576 -194 543 -232 l 618 -233 "},"€":{"x_min":38.890625,"x_max":823.671875,"ha":904,"o":"m 129 452 l 38 452 l 38 546 l 151 546 q 305 740 197 666 q 555 814 413 814 q 823 736 697 814 l 777 647 q 545 715 661 715 q 376 670 448 715 q 269 546 304 625 l 652 546 l 652 452 l 243 452 q 240 397 240 418 q 244 343 240 368 l 652 343 l 652 251 l 272 251 q 383 127 308 172 q 554 82 458 82 q 786 150 669 82 l 823 61 q 555 -17 697 -17 q 302 55 411 -17 q 150 251 193 128 l 38 251 l 38 343 l 129 343 q 126 397 126 376 q 129 452 126 418 "},"Ŭ":{"x_min":99,"x_max":865,"ha":964,"o":"m 865 365 q 758 86 865 190 q 480 -17 652 -17 q 201 83 304 -17 q 99 365 99 183 l 99 1018 l 210 1018 l 210 373 q 282 154 210 226 q 480 83 354 83 q 679 155 605 83 q 754 373 754 227 l 754 1018 l 865 1018 l 865 365 m 653 1256 q 607 1140 653 1187 q 483 1093 561 1093 q 360 1140 406 1093 q 315 1255 315 1187 l 415 1264 q 483 1176 415 1176 q 552 1264 552 1176 l 653 1256 "},"ß":{"x_min":90,"x_max":654.9375,"ha":680,"o":"m 654 566 l 464 309 q 638 106 638 277 q 558 -71 638 -12 q 355 -131 478 -131 q 272 -124 318 -131 l 286 -29 q 354 -35 319 -35 q 485 0 439 -35 q 531 101 531 34 q 490 192 531 158 q 365 227 450 227 q 315 224 333 227 l 307 244 l 481 489 l 198 489 l 198 0 l 90 0 l 90 747 q 318 1028 90 1028 q 409 1015 367 1028 l 391 921 q 336 928 363 928 q 229 891 260 928 q 198 762 198 854 l 198 583 l 648 583 l 654 566 "},"s":{"x_min":37.1875,"x_max":439,"ha":486,"o":"m 439 172 q 384 43 439 97 q 245 -11 330 -11 q 37 65 131 -11 l 92 143 q 239 78 164 78 q 340 161 340 78 q 312 213 340 191 q 244 252 284 236 q 163 286 204 268 q 95 338 123 304 q 68 420 68 372 q 122 543 68 492 q 266 594 177 594 q 436 538 351 594 l 387 456 q 262 505 317 505 q 191 484 215 505 q 168 430 168 463 q 210 373 168 398 q 303 331 252 348 q 396 274 354 314 q 439 172 439 233 "},"Ű":{"x_min":99,"x_max":865,"ha":964,"o":"m 865 365 q 758 86 865 190 q 480 -17 652 -17 q 201 83 304 -17 q 99 365 99 183 l 99 1018 l 210 1018 l 210 373 q 282 154 210 226 q 480 83 354 83 q 679 155 605 83 q 754 373 754 227 l 754 1018 l 865 1018 l 865 365 m 554 1306 l 400 1092 l 347 1127 l 461 1365 l 554 1306 m 743 1291 l 587 1076 l 534 1111 l 648 1350 l 743 1291 "},"?":{"x_min":30.640625,"x_max":502,"ha":533,"o":"m 502 796 q 475 692 502 740 q 412 610 449 644 q 337 543 375 576 q 273 471 299 510 q 247 388 247 431 l 247 281 l 146 281 l 146 417 q 170 507 146 465 q 232 581 195 549 q 303 644 268 613 q 364 713 339 676 q 389 791 389 751 q 222 922 389 922 q 61 890 144 922 l 30 990 q 232 1028 138 1028 q 431 963 361 1028 q 502 796 502 898 m 267 61 q 246 9 267 30 q 194 -11 225 -11 q 144 9 165 -11 q 124 61 124 30 q 144 111 124 90 q 194 132 165 132 q 246 111 225 132 q 267 61 267 90 "},"c":{"x_min":55.5625,"x_max":569.484375,"ha":594,"o":"m 569 48 q 370 -11 475 -11 q 144 75 233 -11 q 55 288 55 161 q 145 505 55 416 q 370 594 234 594 q 569 534 475 594 l 525 451 q 361 500 443 500 q 217 443 273 500 q 161 288 161 386 q 222 139 161 196 q 368 83 284 83 q 531 131 450 83 l 569 48 "},"Ņ":{"x_min":111,"x_max":897,"ha":1008,"o":"m 897 -14 l 883 -19 l 222 772 l 222 0 l 111 0 l 111 1032 l 133 1038 l 786 258 l 786 1018 l 897 1018 l 897 -14 m 576 -165 q 538 -277 576 -218 q 431 -379 501 -337 l 416 -356 q 505 -220 482 -298 q 452 -198 471 -218 q 433 -149 433 -178 q 453 -101 433 -121 q 501 -81 473 -81 q 555 -105 535 -81 q 576 -165 576 -129 "},"¶":{"x_min":79,"x_max":718,"ha":822,"o":"m 718 0 l 618 0 l 618 702 q 528 709 594 707 l 528 0 l 428 0 l 428 220 q 179 285 280 212 q 79 494 79 358 q 192 726 79 638 q 497 814 306 814 q 718 797 584 814 l 718 0 m 428 322 l 428 708 q 257 643 316 698 q 198 500 198 587 q 265 361 198 408 q 428 322 333 313 "},"Ī":{"x_min":-26.390625,"x_max":372.25,"ha":346,"o":"m 229 0 l 118 0 l 118 1018 l 229 1018 l 229 0 m 372 1140 l -26 1140 l -26 1233 l 372 1233 l 372 1140 "},"•":{"x_min":75,"x_max":452.8125,"ha":528,"o":"m 397 644 q 452 508 452 588 q 397 371 452 427 q 263 315 341 315 q 130 371 186 315 q 75 508 75 427 q 130 645 75 588 q 263 701 186 701 q 397 644 341 701 "},"(":{"x_min":69.453125,"x_max":487.53125,"ha":478,"o":"m 487 -237 l 441 -318 q 165 -27 262 -209 q 69 358 69 155 q 165 744 69 562 q 441 1036 262 926 l 487 955 q 251 700 333 861 q 169 358 169 540 q 251 16 169 176 q 487 -237 333 -143 "},"Ħ":{"x_min":-0.125,"x_max":989.125,"ha":989,"o":"m 878 0 l 767 0 l 767 467 l 221 467 l 221 0 l 111 0 l 111 754 l 0 754 l 0 848 l 111 848 l 111 1018 l 221 1018 l 221 848 l 767 848 l 767 1018 l 878 1018 l 878 848 l 989 848 l 989 754 l 878 754 l 878 0 m 221 567 l 767 567 l 767 754 l 221 754 l 221 567 "},":":{"x_min":81,"x_max":225,"ha":306,"o":"m 82 61 q 102 111 82 90 q 152 132 123 132 q 204 111 183 132 q 225 61 225 90 q 204 9 225 30 q 152 -11 183 -11 q 102 9 123 -11 q 82 61 82 30 m 81 442 q 101 492 81 471 q 153 513 122 513 q 203 492 182 513 q 224 442 224 471 q 203 390 224 411 q 153 370 182 370 q 101 390 122 370 q 81 442 81 411 "},"Û":{"x_min":99,"x_max":865,"ha":964,"o":"m 865 365 q 758 86 865 190 q 480 -17 652 -17 q 201 83 304 -17 q 99 365 99 183 l 99 1018 l 210 1018 l 210 373 q 282 154 210 226 q 480 83 354 83 q 679 155 605 83 q 754 373 754 227 l 754 1018 l 865 1018 l 865 365 m 685 1102 l 572 1102 l 479 1220 l 387 1102 l 280 1102 l 465 1325 l 505 1325 l 685 1102 "},"V":{"x_min":6.9375,"x_max":930.625,"ha":938,"o":"m 930 1018 l 477 -18 l 459 -18 l 6 1018 l 131 1018 l 472 212 l 809 1018 l 930 1018 "},"ś":{"x_min":37.1875,"x_max":480.59375,"ha":492,"o":"m 439 172 q 384 43 439 97 q 245 -11 330 -11 q 37 65 131 -11 l 92 143 q 239 78 164 78 q 340 161 340 78 q 312 213 340 191 q 244 252 284 236 q 163 286 204 268 q 95 338 123 304 q 68 420 68 372 q 122 543 68 492 q 266 594 177 594 q 436 538 351 594 l 387 456 q 262 505 317 505 q 191 484 215 505 q 168 430 168 463 q 210 373 168 398 q 303 331 252 348 q 396 274 354 314 q 439 172 439 233 m 480 781 l 215 658 l 183 719 l 426 893 l 480 781 "},"Ŗ":{"x_min":113,"x_max":812.78125,"ha":825,"o":"m 812 0 l 678 0 l 407 402 q 339 399 362 399 q 224 402 290 399 l 224 0 l 113 0 l 113 1008 q 347 1025 242 1025 q 638 941 537 1025 q 739 719 739 857 q 681 536 739 612 q 516 425 623 459 l 812 0 m 620 712 q 552 865 620 805 q 364 925 485 925 q 224 913 272 925 l 224 500 q 347 493 279 493 q 552 551 485 493 q 620 712 620 609 m 472 -165 q 434 -277 472 -218 q 327 -379 397 -337 l 312 -356 q 401 -220 378 -298 q 348 -198 367 -218 q 329 -149 329 -178 q 349 -101 329 -121 q 397 -81 369 -81 q 451 -105 431 -81 q 472 -165 472 -129 "}," ":{"x_min":0,"x_max":0,"ha":340},"@":{"x_min":69,"x_max":881,"ha":950,"o":"m 881 434 q 787 227 881 294 q 693 197 746 197 q 578 264 611 197 q 442 201 518 201 q 349 232 386 201 q 313 319 313 264 q 349 398 313 367 q 443 429 385 429 q 545 408 499 429 l 545 423 q 456 505 545 505 q 364 489 415 505 l 353 559 q 470 579 411 579 q 635 419 635 579 l 635 330 q 653 280 635 296 q 697 265 671 265 q 745 278 725 265 q 800 426 800 319 q 781 532 800 480 q 727 631 763 584 q 624 707 690 679 q 474 736 559 736 q 247 636 341 736 q 154 397 154 537 q 251 154 154 251 q 519 58 348 58 q 684 89 588 58 l 704 16 q 513 -17 590 -17 q 190 101 312 -17 q 69 397 69 220 q 187 690 69 569 q 475 811 306 811 q 653 776 573 811 q 781 688 733 742 q 855 567 829 633 q 881 434 881 502 m 545 302 l 545 348 q 464 372 507 372 q 417 358 435 372 q 399 320 399 345 q 468 265 399 265 q 545 302 514 265 "},"i":{"x_min":70.84375,"x_max":209.734375,"ha":279,"o":"m 209 784 q 189 736 209 757 q 140 715 169 715 q 90 736 111 715 q 70 784 70 757 q 90 834 70 813 q 140 855 111 855 q 189 834 169 855 q 209 784 209 813 m 195 0 l 85 0 l 85 583 l 195 583 l 195 0 "},"Ģ":{"x_min":76,"x_max":993,"ha":1076,"o":"m 612 504 l 993 504 l 993 102 q 620 -17 831 -17 q 238 130 401 -17 q 76 508 76 277 q 121 724 76 623 q 243 891 167 825 q 414 996 319 958 q 608 1035 509 1035 q 813 1004 726 1035 q 988 911 899 973 l 930 823 q 609 935 779 935 q 308 809 420 935 q 197 508 197 684 q 320 204 197 327 q 622 82 444 82 q 882 151 766 82 l 882 400 l 612 400 l 612 504 m 668 -185 q 630 -298 668 -238 q 523 -400 593 -358 l 508 -377 q 597 -240 574 -319 q 544 -218 563 -238 q 525 -169 525 -198 q 545 -121 525 -141 q 593 -101 565 -101 q 647 -125 627 -101 q 668 -185 668 -149 "},"m":{"x_min":78,"x_max":970,"ha":1042,"o":"m 970 0 l 860 0 l 860 373 q 754 500 860 500 q 579 406 668 500 l 579 0 l 469 0 l 469 366 q 444 470 469 437 q 359 502 420 502 q 188 404 268 502 l 188 0 l 78 0 l 78 583 l 182 583 l 182 494 q 397 594 287 594 q 555 485 512 594 q 787 592 647 592 q 924 539 878 592 q 970 393 970 487 l 970 0 "},"ĕ":{"x_min":55.046875,"x_max":594,"ha":640,"o":"m 594 314 q 589 259 594 279 l 162 259 q 380 83 184 83 q 541 114 445 83 l 560 22 q 370 -11 446 -11 q 137 72 218 -11 q 55 288 55 156 q 131 504 55 415 q 338 594 207 594 q 526 515 459 594 q 594 314 594 437 m 167 342 l 493 342 q 446 457 487 413 q 332 502 405 502 q 219 459 262 502 q 167 342 176 417 m 506 832 q 460 717 506 764 q 336 670 414 670 q 213 716 259 670 q 168 831 168 763 l 268 840 q 336 753 268 753 q 405 840 405 753 l 506 832 "},"ż":{"x_min":25,"x_max":534.765625,"ha":563,"o":"m 534 566 l 193 94 l 527 94 l 527 0 l 31 0 l 25 15 l 366 489 l 51 489 l 51 583 l 527 583 l 534 566 m 209 755 q 230 805 209 784 q 279 826 251 826 q 329 805 308 826 q 350 755 350 784 q 329 706 350 727 q 279 686 308 686 q 230 706 251 686 q 209 755 209 727 "},"ő":{"x_min":55.5625,"x_max":645.890625,"ha":701,"o":"m 563 506 q 645 291 645 419 q 563 76 645 163 q 351 -11 481 -11 q 138 76 220 -11 q 55 291 55 163 q 138 506 55 419 q 351 594 220 594 q 563 506 481 594 m 351 505 q 215 446 266 505 q 163 291 163 387 q 215 136 163 195 q 351 77 266 77 q 486 136 434 77 q 537 291 537 195 q 486 446 537 387 q 351 505 434 505 m 420 883 l 266 669 l 213 704 l 327 942 l 420 883 m 609 868 l 454 652 l 401 687 l 515 926 l 609 868 "},"ž":{"x_min":25,"x_max":534.765625,"ha":563,"o":"m 534 566 l 193 94 l 527 94 l 527 0 l 31 0 l 25 15 l 366 489 l 51 489 l 51 583 l 527 583 l 534 566 m 481 886 l 295 662 l 256 662 l 76 886 l 188 886 l 281 766 l 373 886 l 481 886 "},"á":{"x_min":45.859375,"x_max":539,"ha":606,"o":"m 539 0 l 438 0 l 437 61 q 256 -11 362 -11 q 106 39 166 -11 q 45 176 45 90 q 105 306 45 255 q 255 358 165 358 q 432 319 338 358 l 432 353 q 395 463 432 428 q 279 498 358 498 q 126 468 197 498 l 108 563 q 293 594 208 594 q 478 533 418 594 q 539 346 539 473 l 539 0 m 432 149 l 432 227 q 273 275 345 275 q 183 250 216 275 q 150 176 150 225 q 185 102 150 128 q 284 77 220 77 q 432 149 369 77 m 531 781 l 266 658 l 234 719 l 477 893 l 531 781 "},"Ŏ":{"x_min":76.390625,"x_max":1091.75,"ha":1168,"o":"m 1091 508 q 940 133 1091 283 q 579 -16 788 -16 q 222 132 369 -16 q 76 508 76 281 q 227 884 76 733 q 588 1034 379 1034 q 945 884 798 1034 q 1091 508 1091 734 m 861 204 q 970 508 970 326 q 861 812 970 690 q 584 934 752 934 q 306 812 416 934 q 197 508 197 690 q 306 204 197 326 q 584 81 416 81 q 861 204 752 81 m 753 1276 q 707 1161 753 1208 q 583 1114 661 1114 q 460 1161 506 1114 q 415 1276 415 1208 l 515 1285 q 583 1197 515 1197 q 652 1284 652 1197 l 753 1276 "},"×":{"x_min":83.34375,"x_max":527.8125,"ha":611,"o":"m 83 555 l 150 622 l 305 466 l 461 622 l 527 555 l 372 400 l 527 244 l 461 178 l 305 333 l 150 178 l 83 244 l 238 400 l 83 555 "},"İ":{"x_min":102.78125,"x_max":243.078125,"ha":346,"o":"m 229 0 l 118 0 l 118 1018 l 229 1018 l 229 0 m 102 1200 q 123 1250 102 1229 q 172 1271 144 1271 q 222 1250 201 1271 q 243 1200 243 1229 q 222 1151 243 1172 q 172 1131 201 1131 q 123 1151 144 1131 q 102 1200 102 1172 "},"Ě":{"x_min":111,"x_max":706.765625,"ha":797,"o":"m 706 0 l 111 0 l 111 1018 l 706 1018 l 706 918 l 222 918 l 222 567 l 658 567 l 658 467 l 222 467 l 222 100 l 706 100 l 706 0 m 615 1331 l 428 1107 l 390 1107 l 209 1331 l 322 1331 l 415 1211 l 506 1331 l 615 1331 "},"Ǻ":{"x_min":7.515625,"x_max":939.078125,"ha":946,"o":"m 621 1123 q 589 1031 621 1069 q 504 983 558 993 l 939 0 l 819 0 l 698 282 l 243 282 l 122 0 l 7 0 l 440 984 q 357 1032 388 994 q 327 1123 327 1070 q 367 1225 327 1184 q 474 1266 407 1266 q 580 1225 540 1266 q 621 1123 621 1184 m 658 375 l 471 812 l 283 375 l 658 375 m 523 1068 q 544 1125 544 1090 q 524 1182 544 1159 q 473 1204 504 1204 q 422 1182 443 1204 q 402 1125 402 1159 q 422 1068 402 1090 q 473 1045 443 1045 q 523 1068 504 1045 m 691 1427 l 426 1304 l 394 1365 l 637 1539 l 691 1427 "},"K":{"x_min":111,"x_max":827.609375,"ha":832,"o":"m 827 0 l 681 0 l 222 499 l 222 0 l 111 0 l 111 1018 l 222 1018 l 222 544 l 665 1018 l 805 1018 l 333 523 l 827 0 "},"7":{"x_min":43.0625,"x_max":558.375,"ha":589,"o":"m 558 800 l 205 0 l 97 0 l 412 700 l 43 700 l 43 800 l 558 800 "},"¨":{"x_min":115,"x_max":496,"ha":611,"o":"m 496 755 q 475 706 496 727 q 426 686 454 686 q 376 706 397 686 q 356 755 356 727 q 376 805 356 784 q 426 826 397 826 q 475 805 454 826 q 496 755 496 784 m 255 755 q 234 706 255 727 q 184 686 213 686 q 135 706 156 686 q 115 755 115 727 q 135 805 115 784 q 184 826 156 826 q 234 805 213 826 q 255 755 255 784 "},"Y":{"x_min":28.03125,"x_max":854.359375,"ha":882,"o":"m 854 1018 l 496 451 l 496 0 l 385 0 l 385 452 l 28 1018 l 153 1018 l 444 545 l 732 1018 l 854 1018 "},"E":{"x_min":111,"x_max":706.765625,"ha":797,"o":"m 706 0 l 111 0 l 111 1018 l 706 1018 l 706 918 l 222 918 l 222 567 l 658 567 l 658 467 l 222 467 l 222 100 l 706 100 l 706 0 "},"Ô":{"x_min":76.390625,"x_max":1091.75,"ha":1168,"o":"m 1091 508 q 940 133 1091 283 q 579 -16 788 -16 q 222 132 369 -16 q 76 508 76 281 q 227 884 76 733 q 588 1034 379 1034 q 945 884 798 1034 q 1091 508 1091 734 m 861 204 q 970 508 970 326 q 861 812 970 690 q 584 934 752 934 q 306 812 416 934 q 197 508 197 690 q 306 204 197 326 q 584 81 416 81 q 861 204 752 81 m 786 1123 l 672 1123 l 579 1241 l 487 1123 l 380 1123 l 565 1346 l 605 1346 l 786 1123 "},"‹":{"x_min":68.0625,"x_max":323.640625,"ha":386,"o":"m 323 13 l 213 13 l 68 240 l 213 467 l 323 467 l 170 240 l 323 13 "},"Ï":{"x_min":-18,"x_max":362,"ha":346,"o":"m 229 0 l 118 0 l 118 1018 l 229 1018 l 229 0 m 362 1200 q 341 1151 362 1172 q 292 1131 320 1131 q 242 1151 263 1131 q 222 1200 222 1172 q 242 1250 222 1229 q 292 1271 263 1271 q 341 1250 320 1271 q 362 1200 362 1229 m 122 1200 q 101 1151 122 1172 q 51 1131 80 1131 q 2 1151 23 1131 q -18 1200 -18 1172 q 2 1250 -18 1229 q 51 1271 23 1271 q 101 1250 80 1271 q 122 1200 122 1229 "},"ġ":{"x_min":56,"x_max":631,"ha":708,"o":"m 631 -54 q 565 -247 631 -184 q 383 -311 500 -311 q 187 -279 295 -311 l 202 -179 q 366 -210 293 -210 q 484 -174 447 -210 q 521 -64 521 -139 l 521 49 q 340 -11 448 -11 q 135 71 214 -11 q 56 285 56 154 q 141 503 56 413 q 343 594 226 594 q 527 528 458 594 l 527 582 l 631 582 l 631 -54 m 521 149 l 521 422 q 448 479 493 456 q 355 502 404 502 q 216 440 269 502 q 164 285 164 379 q 217 136 164 195 q 365 76 270 76 q 521 149 459 76 m 300 755 q 320 805 300 784 q 369 826 341 826 q 419 805 398 826 q 440 755 440 784 q 419 706 440 727 q 369 686 398 686 q 320 706 341 686 q 300 755 300 727 "},"ķ":{"x_min":78,"x_max":585.25,"ha":586,"o":"m 585 0 l 449 0 l 187 287 l 188 0 l 78 0 l 78 1018 l 188 1018 l 187 326 l 435 583 l 571 583 l 289 311 l 585 0 m 374 -185 q 336 -298 374 -238 q 230 -400 299 -358 l 214 -377 q 303 -240 281 -319 q 250 -218 269 -238 q 231 -169 231 -198 q 251 -121 231 -141 q 299 -101 271 -101 q 353 -125 333 -101 q 374 -185 374 -149 "}," ":{"x_min":0,"x_max":0,"ha":463},"ì":{"x_min":-77.78125,"x_max":223.625,"ha":289,"o":"m 200 0 l 90 0 l 90 583 l 200 583 l 200 0 m 223 716 l 187 658 l -77 781 l -19 890 l 223 716 "},"|":{"x_min":125,"x_max":219,"ha":344,"o":"m 219 -300 l 125 -300 l 125 1018 l 219 1018 l 219 -300 "},"§":{"x_min":90.96875,"x_max":554,"ha":621,"o":"m 554 399 q 467 266 554 309 q 517 165 517 227 q 459 39 517 92 q 307 -14 402 -14 q 90 61 184 -14 l 145 140 q 225 93 177 111 q 314 75 274 75 q 416 150 416 75 q 382 204 416 181 q 301 240 349 226 q 207 271 254 254 q 126 322 159 288 q 93 404 93 355 q 189 538 93 498 q 132 640 132 576 q 193 761 132 709 q 344 814 254 814 q 526 756 443 814 l 478 676 q 342 725 408 725 q 266 703 294 725 q 238 649 238 681 q 270 604 238 624 q 349 569 303 584 q 441 535 395 554 q 521 481 488 516 q 554 399 554 447 m 455 384 q 418 444 455 419 q 280 498 382 469 q 219 473 243 494 q 196 425 196 452 q 204 395 196 408 q 233 370 212 381 q 271 352 254 359 q 327 332 289 345 q 388 311 365 319 q 436 338 417 318 q 455 384 455 358 "},"q":{"x_min":56,"x_max":631,"ha":709,"o":"m 631 -300 l 521 -300 l 521 46 q 347 -11 450 -11 q 137 70 219 -11 q 56 285 56 151 q 144 505 56 416 q 350 594 232 594 q 527 531 454 594 l 527 582 l 631 582 l 631 -300 m 521 154 l 521 423 q 448 479 493 456 q 355 502 404 502 q 218 441 272 502 q 164 288 164 381 q 217 137 164 194 q 370 81 270 81 q 521 154 464 81 "},"b":{"x_min":78,"x_max":652,"ha":708,"o":"m 652 295 q 566 79 652 169 q 365 -11 481 -11 q 182 57 252 -11 l 182 0 l 78 0 l 78 1018 l 188 1018 l 187 529 q 377 594 263 594 q 573 510 495 594 q 652 295 652 426 m 544 294 q 492 442 544 382 q 357 502 441 502 q 188 432 254 502 l 188 157 q 344 81 251 81 q 487 141 431 81 q 544 294 544 201 "},"®":{"x_min":32,"x_max":504,"ha":536,"o":"m 32 793 q 101 963 32 893 q 268 1034 170 1034 q 434 963 365 1034 q 504 793 504 893 q 434 623 504 694 q 268 552 365 552 q 101 623 170 552 q 32 793 32 694 m 461 793 q 404 936 461 876 q 268 995 348 995 q 131 936 188 995 q 75 793 75 876 q 131 651 75 711 q 268 591 188 591 q 404 651 347 591 q 461 793 461 711 m 192 678 l 192 911 q 256 916 221 916 q 330 895 305 916 q 355 840 355 874 q 310 771 355 787 l 372 678 l 320 678 l 269 761 q 254 759 262 759 l 236 761 l 236 678 l 192 678 m 236 875 l 236 797 q 258 796 245 796 q 308 839 308 796 q 260 876 308 876 q 236 875 242 876 "},"L":{"x_min":111,"x_max":706.765625,"ha":732,"o":"m 706 0 l 111 0 l 111 1018 l 222 1018 l 222 100 l 706 100 l 706 0 "},"ď":{"x_min":56,"x_max":865,"ha":708,"o":"m 631 0 l 527 0 l 526 60 q 340 -11 458 -11 q 135 71 214 -11 q 56 285 56 154 q 141 503 56 413 q 343 594 226 594 q 521 535 448 594 l 521 1018 l 631 1018 l 631 0 m 521 157 l 521 423 q 351 502 457 502 q 216 442 269 502 q 164 288 164 382 q 216 139 164 198 q 358 81 269 81 q 521 157 455 81 m 761 1018 l 865 1001 q 738 738 865 841 l 686 779 q 761 1018 755 859 "}," ":{"x_min":0,"x_max":0,"ha":313},"Ĭ":{"x_min":4,"x_max":342,"ha":346,"o":"m 229 0 l 118 0 l 118 1018 l 229 1018 l 229 0 m 342 1276 q 296 1161 342 1208 q 172 1114 250 1114 q 49 1161 95 1114 q 4 1276 4 1208 l 104 1285 q 172 1197 104 1197 q 241 1284 241 1197 l 342 1276 "},"À":{"x_min":6.9375,"x_max":938.96875,"ha":946,"o":"m 938 0 l 819 0 l 698 282 l 243 282 l 122 0 l 6 0 l 463 1036 l 481 1036 l 938 0 m 658 375 l 470 812 l 283 375 l 658 375 m 551 1161 l 515 1103 l 250 1226 l 308 1335 l 551 1161 "},"ẃ":{"x_min":11.109375,"x_max":822.28125,"ha":828,"o":"m 822 583 l 615 -15 l 597 -15 l 419 380 l 238 -15 l 220 -15 l 11 583 l 133 583 l 247 202 l 408 586 l 426 586 l 598 202 l 705 583 l 822 583 m 636 781 l 370 658 l 338 719 l 581 893 l 636 781 "},"+":{"x_min":82.875,"x_max":555.125,"ha":639,"o":"m 555 353 l 369 353 l 369 157 l 269 157 l 269 353 l 82 353 l 82 447 l 269 447 l 269 643 l 369 643 l 369 447 l 555 447 l 555 353 "},"Ë":{"x_min":111,"x_max":706.765625,"ha":797,"o":"m 706 0 l 111 0 l 111 1018 l 706 1018 l 706 918 l 222 918 l 222 567 l 658 567 l 658 467 l 222 467 l 222 100 l 706 100 l 706 0 m 603 1200 q 582 1151 603 1172 q 533 1131 561 1131 q 483 1151 504 1131 q 463 1200 463 1172 q 483 1250 463 1229 q 533 1271 504 1271 q 582 1250 561 1271 q 603 1200 603 1229 m 362 1200 q 341 1151 362 1172 q 291 1131 320 1131 q 242 1151 263 1131 q 222 1200 222 1172 q 242 1250 222 1229 q 291 1271 263 1271 q 341 1250 320 1271 q 362 1200 362 1229 "},"'":{"x_min":61.109375,"x_max":298.640625,"ha":340,"o":"m 298 896 l 122 650 l 61 690 l 191 963 l 298 896 "},"Š":{"x_min":34.828125,"x_max":640,"ha":697,"o":"m 640 274 q 550 67 640 151 q 329 -17 460 -17 q 34 77 179 -17 l 89 174 q 334 84 215 84 q 476 135 427 84 q 526 261 526 186 q 485 378 526 331 q 324 477 445 424 q 137 599 192 535 q 83 756 83 663 q 170 952 83 870 q 394 1035 257 1035 q 620 965 520 1035 l 570 871 q 387 934 484 934 q 244 885 295 934 q 194 762 194 836 q 234 664 194 708 q 367 578 275 619 q 583 442 526 507 q 640 274 640 377 m 573 1331 l 387 1107 l 348 1107 l 167 1331 l 280 1331 l 373 1211 l 464 1331 l 573 1331 "},"˛":{"x_min":215.9375,"x_max":455.40625,"ha":611,"o":"m 455 -233 q 330 -304 402 -302 q 246 -272 278 -305 q 216 -191 214 -240 q 248 -93 217 -144 q 366 46 278 -42 l 405 7 q 304 -177 304 -113 q 348 -232 304 -232 q 413 -194 380 -232 l 455 -233 "},"ð":{"x_min":56,"x_max":647,"ha":703,"o":"m 210 703 l 155 768 l 255 857 q 110 939 195 900 l 155 1021 q 326 922 249 977 l 418 1005 l 473 939 l 394 868 q 647 320 647 650 q 564 80 647 172 q 350 -11 481 -11 q 132 78 208 -11 q 56 304 56 168 q 132 512 56 429 q 322 596 208 596 q 517 512 443 596 q 322 803 473 669 l 210 703 m 540 294 q 486 446 540 386 q 345 506 433 506 q 213 448 264 506 q 163 297 163 391 q 214 143 163 208 q 350 79 266 79 q 488 140 436 79 q 540 294 540 201 "},"ş":{"x_min":38.03125,"x_max":440,"ha":493,"o":"m 378 -202 q 342 -292 378 -256 q 240 -329 307 -329 q 90 -281 172 -329 l 122 -217 q 240 -255 185 -255 q 280 -241 265 -255 q 295 -205 295 -227 q 263 -157 295 -177 q 165 -133 232 -137 l 160 -121 l 190 -5 q 38 65 108 8 l 93 143 q 240 78 165 78 q 341 161 341 78 q 313 213 341 191 q 244 252 285 236 q 164 286 204 268 q 95 338 123 304 q 68 420 68 372 q 122 543 68 492 q 266 594 177 594 q 436 538 351 594 l 387 456 q 262 505 318 505 q 191 484 215 505 q 168 430 168 463 q 210 373 168 398 q 304 331 253 348 q 397 273 354 314 q 440 171 440 233 q 388 46 440 99 q 257 -11 336 -7 l 241 -70 q 378 -202 378 -101 "}," ":{"x_min":0,"x_max":0,"ha":722},"ı":{"x_min":90,"x_max":200,"ha":289,"o":"m 200 0 l 90 0 l 90 583 l 200 583 l 200 0 "},"Ć":{"x_min":76,"x_max":952.625,"ha":992,"o":"m 952 80 q 616 -17 795 -17 q 228 131 380 -17 q 76 508 76 279 q 230 884 76 733 q 616 1035 385 1035 q 952 937 795 1035 l 906 843 q 606 931 755 931 q 307 812 417 931 q 197 508 197 693 q 311 205 197 324 q 616 87 426 87 q 916 174 766 87 l 952 80 m 802 1226 l 537 1103 l 505 1164 l 748 1338 l 802 1226 "},"ä":{"x_min":46.171875,"x_max":539,"ha":606,"o":"m 539 0 l 438 0 l 437 61 q 257 -11 362 -11 q 106 39 167 -11 q 46 176 46 90 q 105 306 46 255 q 255 358 165 358 q 432 319 339 358 l 432 353 q 395 463 432 428 q 279 498 358 498 q 126 468 196 498 l 107 563 q 292 594 208 594 q 478 533 418 594 q 539 346 539 473 l 539 0 m 432 149 l 432 227 q 273 275 345 275 q 183 250 216 275 q 150 176 150 225 q 185 102 150 128 q 284 77 220 77 q 432 149 369 77 m 503 755 q 482 706 503 727 q 433 686 461 686 q 383 706 404 686 q 363 755 363 727 q 383 805 363 784 q 433 826 404 826 q 482 805 461 826 q 503 755 503 784 m 262 755 q 241 706 262 727 q 191 686 220 686 q 142 706 163 686 q 122 755 122 727 q 142 805 122 784 q 191 826 163 826 q 241 805 220 826 q 262 755 262 784 "},"£":{"x_min":48.328125,"x_max":595.859375,"ha":610,"o":"m 595 754 l 543 662 q 387 714 463 714 q 250 531 250 714 l 250 440 l 420 440 l 420 346 l 250 346 l 250 99 l 590 99 l 590 0 l 48 0 l 48 99 l 140 99 l 140 346 l 48 346 l 48 354 l 140 448 l 140 545 q 209 739 140 664 q 402 814 279 814 q 595 754 495 814 "},"ů":{"x_min":72,"x_max":588,"ha":666,"o":"m 588 0 l 484 0 l 483 81 q 385 16 443 43 q 273 -11 327 -11 q 123 43 174 -11 q 72 187 72 97 l 72 583 l 182 583 l 182 217 q 304 81 182 81 q 478 169 394 81 l 478 583 l 588 583 l 588 0 m 436 916 q 476 815 476 876 q 436 713 476 754 q 329 673 395 673 q 222 713 262 673 q 181 815 181 754 q 222 917 181 876 q 329 958 262 958 q 436 916 395 958 m 379 759 q 400 816 400 782 q 379 873 400 851 q 329 895 359 895 q 278 873 298 895 q 258 816 258 851 q 278 759 258 782 q 329 737 298 737 q 379 759 359 737 "},"Ō":{"x_min":76.390625,"x_max":1091.75,"ha":1168,"o":"m 1091 508 q 940 133 1091 283 q 579 -16 788 -16 q 222 132 369 -16 q 76 508 76 281 q 227 884 76 733 q 588 1034 379 1034 q 945 884 798 1034 q 1091 508 1091 734 m 861 204 q 970 508 970 326 q 861 812 970 690 q 584 934 752 934 q 306 812 416 934 q 197 508 197 690 q 306 204 197 326 q 584 81 416 81 q 861 204 752 81 m 783 1140 l 384 1140 l 384 1233 l 783 1233 l 783 1140 "},"W":{"x_min":13.890625,"x_max":1258.4375,"ha":1272,"o":"m 1258 1018 l 977 -16 l 955 -19 l 633 785 l 316 -19 l 294 -16 l 13 1018 l 126 1018 l 327 268 l 629 1026 l 643 1026 l 945 272 l 1145 1018 l 1258 1018 "},"Ğ":{"x_min":76,"x_max":993,"ha":1076,"o":"m 612 504 l 993 504 l 993 102 q 620 -17 831 -17 q 238 130 401 -17 q 76 508 76 277 q 121 724 76 623 q 243 891 167 825 q 414 996 319 958 q 608 1035 509 1035 q 813 1004 726 1035 q 988 911 899 973 l 930 823 q 609 935 779 935 q 308 809 420 935 q 197 508 197 684 q 320 204 197 327 q 622 82 444 82 q 882 151 766 82 l 882 400 l 612 400 l 612 504 m 766 1276 q 720 1161 766 1208 q 596 1114 674 1114 q 473 1161 519 1114 q 428 1276 428 1208 l 528 1285 q 596 1197 528 1197 q 665 1284 665 1197 l 766 1276 "},"v":{"x_min":5.5625,"x_max":598.65625,"ha":604,"o":"m 598 583 l 308 -15 l 290 -15 l 5 583 l 127 583 l 304 175 l 480 583 l 598 583 "},">":{"x_min":47.21875,"x_max":494.484375,"ha":547,"o":"m 494 401 l 112 63 l 47 135 l 350 404 l 47 672 l 112 739 l 494 401 "},"û":{"x_min":72,"x_max":588,"ha":666,"o":"m 588 0 l 484 0 l 484 82 q 385 16 443 43 q 273 -11 328 -11 q 123 43 175 -11 q 72 187 72 97 l 72 583 l 182 583 l 182 216 q 304 81 182 81 q 478 169 394 81 l 478 583 l 588 583 l 588 0 m 532 679 l 418 679 l 325 797 l 233 679 l 126 679 l 311 901 l 351 901 l 532 679 "},"Ź":{"x_min":51.390625,"x_max":802.84375,"ha":861,"o":"m 802 1001 l 226 100 l 795 100 l 795 0 l 58 0 l 51 15 l 627 918 l 87 918 l 87 1018 l 795 1018 l 802 1001 m 645 1226 l 380 1103 l 348 1164 l 591 1338 l 645 1226 "},"Ų":{"x_min":99,"x_max":865,"ha":964,"o":"m 603 -233 q 478 -304 550 -302 q 394 -272 426 -305 q 364 -191 362 -240 q 455 -17 365 -118 q 194 89 289 -10 q 99 365 99 190 l 99 1018 l 210 1018 l 210 373 q 282 154 210 226 q 480 83 354 83 q 679 155 605 83 q 754 373 754 227 l 754 1018 l 865 1018 l 865 364 q 775 103 865 203 q 536 -13 686 2 q 452 -177 452 -118 q 496 -232 452 -232 q 561 -194 528 -232 l 603 -233 "},"Ŵ":{"x_min":13.890625,"x_max":1258.4375,"ha":1272,"o":"m 1258 1018 l 977 -16 l 955 -19 l 633 786 l 316 -19 l 294 -16 l 13 1018 l 126 1018 l 327 268 l 629 1026 l 643 1026 l 945 272 l 1145 1018 l 1258 1018 m 838 1123 l 725 1123 l 632 1241 l 540 1123 l 433 1123 l 618 1346 l 658 1346 l 838 1123 "},"Ð":{"x_min":13.984375,"x_max":986,"ha":1062,"o":"m 986 518 q 949 320 986 414 q 843 153 912 226 q 663 35 774 79 q 413 -8 552 -8 q 139 8 297 -8 l 139 467 l 13 467 l 13 567 l 139 567 l 139 1008 q 404 1025 272 1025 q 655 982 543 1025 q 838 868 768 940 q 947 707 909 797 q 986 518 986 618 m 865 518 q 747 816 865 701 q 415 931 630 931 q 250 919 308 931 l 250 567 l 401 567 l 401 467 l 250 467 l 250 99 q 429 88 306 88 q 754 207 644 88 q 865 518 865 326 "},"Ĺ":{"x_min":111,"x_max":706.765625,"ha":732,"o":"m 706 0 l 111 0 l 111 1018 l 222 1018 l 222 100 l 706 100 l 706 0 m 448 1226 l 183 1103 l 151 1164 l 394 1338 l 448 1226 "},"r":{"x_min":78,"x_max":391,"ha":411,"o":"m 391 487 q 188 398 249 487 l 188 0 l 78 0 l 78 582 l 182 582 l 182 485 q 391 594 265 594 l 391 487 "},"Č":{"x_min":76,"x_max":952.625,"ha":992,"o":"m 952 80 q 616 -17 795 -17 q 228 131 380 -17 q 76 508 76 279 q 230 884 76 733 q 616 1035 385 1035 q 952 937 795 1035 l 906 843 q 606 931 755 931 q 307 812 417 931 q 197 508 197 693 q 311 205 197 324 q 616 87 426 87 q 916 174 766 87 l 952 80 m 786 1331 l 600 1107 l 561 1107 l 380 1331 l 493 1331 l 586 1211 l 677 1331 l 786 1331 "},"x":{"x_min":26.390625,"x_max":561.15625,"ha":579,"o":"m 561 0 l 437 0 l 293 210 l 144 0 l 26 0 l 238 288 l 26 583 l 150 583 l 297 369 l 443 583 l 561 583 l 351 291 l 561 0 "},"è":{"x_min":55.078125,"x_max":594,"ha":640,"o":"m 594 314 q 589 259 594 279 l 162 259 q 380 83 184 83 q 541 114 445 83 l 560 22 q 370 -11 446 -11 q 137 72 218 -11 q 55 288 55 156 q 131 504 55 415 q 338 594 207 594 q 526 515 459 594 q 594 314 594 437 m 166 342 l 493 342 q 446 457 487 413 q 331 502 405 502 q 219 459 262 502 q 166 342 176 417 m 415 716 l 379 658 l 113 781 l 172 890 l 415 716 "},"Ø":{"x_min":76,"x_max":1092,"ha":1168,"o":"m 1092 508 q 940 133 1092 283 q 579 -17 789 -17 q 258 100 397 -17 l 155 -8 l 87 61 q 104 79 94 68 q 137 114 114 90 q 174 153 160 137 l 190 168 q 76 508 76 314 q 227 884 76 733 q 589 1035 379 1035 q 910 916 772 1035 l 1013 1025 l 1081 956 l 977 848 q 1092 508 1092 704 m 834 839 q 584 935 730 935 q 306 812 416 935 q 197 508 197 690 q 270 251 197 361 l 834 839 m 971 508 q 897 765 971 655 q 333 176 333 177 q 584 82 439 82 q 861 204 752 82 q 971 508 971 326 "},"Ń":{"x_min":111,"x_max":897,"ha":1008,"o":"m 897 -14 l 883 -19 l 222 772 l 222 0 l 111 0 l 111 1032 l 133 1037 l 786 258 l 786 1018 l 897 1018 l 897 -14 m 723 1205 l 458 1082 l 426 1143 l 669 1317 l 723 1205 "},"Ỳ":{"x_min":28.03125,"x_max":854.359375,"ha":882,"o":"m 854 1018 l 496 451 l 496 0 l 385 0 l 385 452 l 28 1018 l 153 1018 l 444 545 l 732 1018 l 854 1018 m 519 1140 l 483 1082 l 218 1205 l 276 1314 l 519 1140 "},"÷":{"x_min":83.34375,"x_max":555.59375,"ha":639,"o":"m 83 353 l 83 447 l 555 447 l 555 353 l 83 353 m 250 588 q 270 638 250 618 q 319 659 290 659 q 368 638 348 659 q 389 588 389 618 q 368 540 389 561 q 319 519 348 519 q 270 540 290 519 q 250 588 250 561 m 250 209 q 270 259 250 238 q 319 280 290 280 q 368 259 348 280 q 389 209 389 238 q 368 161 389 181 q 319 140 348 140 q 270 161 290 140 q 250 209 250 181 "},"h":{"x_min":78,"x_max":602,"ha":674,"o":"m 602 0 l 492 0 l 492 366 q 369 502 492 502 q 273 474 324 502 q 188 407 222 446 l 188 0 l 78 0 l 78 1018 l 188 1018 l 187 495 q 397 594 283 594 q 549 539 496 594 q 602 395 602 485 l 602 0 "},".":{"x_min":82,"x_max":225,"ha":306,"o":"m 82 61 q 102 111 82 90 q 152 132 123 132 q 204 111 183 132 q 225 61 225 90 q 204 9 225 30 q 152 -11 183 -11 q 102 9 123 -11 q 82 61 82 30 "},"f":{"x_min":36.703125,"x_max":446.140625,"ha":410,"o":"m 446 1015 l 428 921 q 373 928 400 928 q 266 891 297 928 q 235 762 235 854 l 235 583 l 407 583 l 407 489 l 235 489 l 235 0 l 127 0 l 127 489 l 36 489 l 36 502 l 127 593 l 127 747 q 355 1028 127 1028 q 446 1015 404 1028 "},"“":{"x_min":42,"x_max":405.28125,"ha":443,"o":"m 389 814 q 368 766 389 786 q 320 746 348 746 q 266 770 286 746 q 246 832 246 794 q 283 944 246 885 q 390 1045 320 1003 l 405 1022 q 316 885 339 964 q 369 863 350 883 q 389 814 389 843 m 185 814 q 164 766 185 786 q 116 746 144 746 q 62 770 82 746 q 42 832 42 794 q 79 944 42 885 q 186 1045 116 1003 l 201 1022 q 112 885 135 964 q 165 863 146 883 q 185 814 185 843 "},"A":{"x_min":6.9375,"x_max":938.96875,"ha":946,"o":"m 938 0 l 819 0 l 698 282 l 243 282 l 122 0 l 6 0 l 463 1036 l 481 1036 l 938 0 m 658 375 l 470 812 l 283 375 l 658 375 "},"‘":{"x_min":42,"x_max":201.671875,"ha":239,"o":"m 185 814 q 164 766 185 786 q 116 746 144 746 q 62 770 82 746 q 42 832 42 794 q 79 944 42 885 q 186 1045 116 1003 l 201 1022 q 112 885 135 964 q 165 863 146 883 q 185 814 185 843 "},"O":{"x_min":76.390625,"x_max":1091.75,"ha":1168,"o":"m 1091 508 q 940 133 1091 283 q 579 -16 788 -16 q 222 132 369 -16 q 76 508 76 281 q 227 884 76 733 q 588 1034 379 1034 q 945 884 798 1034 q 1091 508 1091 734 m 861 204 q 970 508 970 326 q 861 812 970 690 q 584 934 752 934 q 306 812 416 934 q 197 508 197 690 q 306 204 197 326 q 584 81 416 81 q 861 204 752 81 "},"Đ":{"x_min":13.984375,"x_max":986,"ha":1062,"o":"m 986 518 q 949 320 986 414 q 843 153 912 226 q 663 35 774 79 q 413 -8 552 -8 q 139 8 297 -8 l 139 467 l 13 467 l 13 567 l 139 567 l 139 1008 q 404 1025 272 1025 q 655 982 543 1025 q 838 868 768 940 q 947 707 909 797 q 986 518 986 618 m 865 518 q 747 816 865 701 q 415 931 630 931 q 250 919 308 931 l 250 567 l 401 567 l 401 467 l 250 467 l 250 99 q 429 88 306 88 q 754 207 644 88 q 865 518 865 326 "},"3":{"x_min":44.75,"x_max":546.21875,"ha":587,"o":"m 546 784 l 290 458 q 464 381 404 443 q 524 224 524 320 q 450 54 524 122 q 253 -14 376 -14 q 44 23 157 -14 l 75 114 q 247 83 171 83 q 373 121 329 83 q 417 228 417 160 q 363 335 417 298 q 205 373 310 373 q 119 367 160 373 l 111 380 l 361 700 l 47 700 l 47 800 l 539 800 l 546 784 "},"9":{"x_min":68,"x_max":603,"ha":656,"o":"m 603 530 q 497 228 603 374 q 162 -38 391 82 l 116 44 q 450 343 368 183 q 313 296 398 296 q 139 366 211 296 q 68 540 68 437 q 143 733 68 652 q 336 814 218 814 q 531 734 459 814 q 603 530 603 654 m 490 556 q 446 675 490 629 q 334 722 402 722 q 218 674 262 722 q 175 556 175 626 q 215 432 175 479 q 329 385 256 385 q 449 431 409 385 q 490 556 490 477 "},"Ǿ":{"x_min":76,"x_max":1092,"ha":1168,"o":"m 1092 508 q 940 133 1092 283 q 579 -17 789 -17 q 258 100 397 -17 l 155 -8 l 87 61 q 104 79 94 68 q 137 114 114 90 q 174 153 160 137 l 190 168 q 76 508 76 314 q 227 884 76 733 q 589 1035 379 1035 q 910 916 772 1035 l 1013 1025 l 1081 956 l 977 848 q 1092 508 1092 704 m 834 839 q 584 935 730 935 q 306 812 416 935 q 197 508 197 690 q 270 251 197 361 l 834 839 m 971 508 q 897 765 971 655 q 333 176 333 177 q 584 82 439 82 q 861 204 752 82 q 971 508 971 326 m 802 1226 l 537 1103 l 505 1164 l 748 1338 l 802 1226 "},"l":{"x_min":83,"x_max":193,"ha":276,"o":"m 193 0 l 83 0 l 83 1018 l 193 1018 l 193 0 "},"4":{"x_min":30.75,"x_max":640.34375,"ha":671,"o":"m 640 240 l 507 240 l 507 -3 l 403 -3 l 403 240 l 30 240 l 30 267 l 479 815 l 507 815 l 507 339 l 640 339 l 640 240 m 403 339 l 403 578 l 205 338 l 403 339 "},"Ẁ":{"x_min":13.890625,"x_max":1258.4375,"ha":1272,"o":"m 1258 1018 l 977 -16 l 955 -19 l 633 786 l 316 -19 l 294 -16 l 13 1018 l 126 1018 l 327 268 l 629 1026 l 643 1026 l 945 272 l 1145 1018 l 1258 1018 m 715 1161 l 679 1103 l 413 1226 l 472 1335 l 715 1161 "}," ":{"x_min":0,"x_max":0,"ha":104},"Ť":{"x_min":34.6875,"x_max":824.90625,"ha":860,"o":"m 824 918 l 486 918 l 486 0 l 375 0 l 375 918 l 34 918 l 34 1018 l 824 1018 l 824 918 m 631 1331 l 445 1107 l 406 1107 l 226 1331 l 338 1331 l 431 1211 l 523 1331 l 631 1331 "},"Ü":{"x_min":99,"x_max":865,"ha":964,"o":"m 865 365 q 758 86 865 190 q 480 -17 652 -17 q 201 83 304 -17 q 99 365 99 183 l 99 1018 l 210 1018 l 210 373 q 282 154 210 226 q 480 83 354 83 q 679 155 605 83 q 754 373 754 227 l 754 1018 l 865 1018 l 865 365 m 674 1179 q 653 1130 674 1151 q 604 1110 632 1110 q 554 1130 575 1110 q 534 1179 534 1151 q 554 1229 534 1208 q 604 1250 575 1250 q 653 1229 632 1250 q 674 1179 674 1208 m 433 1179 q 412 1130 433 1151 q 362 1110 391 1110 q 313 1130 334 1110 q 293 1179 293 1151 q 313 1229 293 1208 q 362 1250 334 1250 q 412 1229 391 1250 q 433 1179 433 1208 "},"à":{"x_min":46,"x_max":539,"ha":606,"o":"m 539 0 l 438 0 l 437 61 q 257 -11 362 -11 q 106 39 166 -11 q 46 176 46 90 q 105 306 46 255 q 255 358 165 358 q 432 319 338 358 l 432 353 q 395 463 432 428 q 279 498 358 498 q 126 468 197 498 l 108 563 q 293 594 208 594 q 478 533 418 594 q 539 346 539 473 l 539 0 m 432 149 l 432 227 q 273 275 345 275 q 183 250 216 275 q 150 176 150 225 q 185 102 150 128 q 284 77 220 77 q 432 149 369 77 m 392 716 l 355 658 l 90 781 l 149 890 l 392 716 "},"Ś":{"x_min":34.828125,"x_max":640,"ha":697,"o":"m 640 274 q 550 67 640 151 q 329 -17 460 -17 q 34 77 179 -17 l 89 174 q 334 84 215 84 q 476 135 427 84 q 526 261 526 186 q 485 378 526 331 q 324 477 445 424 q 137 599 192 535 q 83 756 83 663 q 170 952 83 870 q 394 1035 257 1035 q 620 965 520 1035 l 570 871 q 387 934 484 934 q 244 885 295 934 q 194 762 194 836 q 234 664 194 708 q 367 578 275 619 q 583 442 526 507 q 640 274 640 377 m 590 1226 l 324 1103 l 292 1164 l 536 1338 l 590 1226 "},"ó":{"x_min":55.5625,"x_max":645.890625,"ha":701,"o":"m 563 506 q 645 291 645 419 q 563 76 645 163 q 351 -11 481 -11 q 138 76 220 -11 q 55 291 55 163 q 138 506 55 419 q 351 594 220 594 q 563 506 481 594 m 351 505 q 215 446 266 505 q 163 291 163 387 q 215 136 163 195 q 351 77 266 77 q 486 136 434 77 q 537 291 537 195 q 486 446 537 387 q 351 505 434 505 m 569 781 l 304 658 l 272 719 l 515 893 l 569 781 "},"ŗ":{"x_min":51.328125,"x_max":391,"ha":411,"o":"m 391 487 q 188 398 249 487 l 188 0 l 78 0 l 78 582 l 182 582 l 182 485 q 391 594 265 594 l 391 487 m 211 -185 q 173 -298 211 -238 q 66 -400 136 -358 l 51 -377 q 140 -240 117 -319 q 87 -218 106 -238 q 68 -169 68 -198 q 88 -121 68 -141 q 136 -101 108 -101 q 190 -125 170 -101 q 211 -185 211 -149 "}}}
